<ttFont>
          <CharString index="0">
            26 6 -6 -26 hvcurveto
            -131 vlineto
            -26 -7 -7 -25 vhcurveto
            -52 105 -105 callsubr
            165 return
          </CharString>
          <CharString index="1">
            -103 callgsubr
            -59 hlineto
            -78 -28 -29 -62 hvcurveto
            return
          </CharString>
          <CharString index="2">
            -113 -366 -104 callgsubr
            return
          </CharString>
          <CharString index="3">
            -83 228 hlineto
            -107 callsubr
            return
          </CharString>
          <CharString index="4">
            -61 28 callsubr
            98 hlineto
            77 -97 callsubr
            -21 -7 5 22 hvcurveto
            return
          </CharString>
          <CharString index="5">
            -101 callgsubr
            114 return
          </CharString>
          <CharString index="6">
            -2 callgsubr
            -186 373 callsubr
            -23 -78 59 hlineto
            77 28 428 callgsubr
            -34 29 -67 vhcurveto
            -63 hlineto
            -20 -13 408 callsubr
          </CharString>
          <CharString index="7">
            -7 -102 callgsubr
            return
          </CharString>
          <CharString index="8">
            5 21 vhcurveto
            return
          </CharString>
          <CharString index="9">
            -6 -102 callgsubr
            return
          </CharString>
          <CharString index="10">
            -69 callsubr
            -6 -5 -19 vhcurveto
            -30 hlineto
            return
          </CharString>
          <CharString index="11">
            257 -102 427 callsubr
            -173 vlineto
            -70 268 callsubr
            70 hvcurveto
            370 return
          </CharString>
          <CharString index="12">
            -85 callsubr
            -90 return
          </CharString>
          <CharString index="13">
            rmoveto
            94 -41 callsubr
            48 -70 callsubr
            -94 vlineto
            -105 205 rmoveto
            -76 -33 105 callsubr
            33 -36 76 vhcurveto
            104 -20 callsubr
            50 -110 -37 vlineto
            -29 callsubr
            -46 36 callgsubr
            101 213 179 307 callsubr
            -76 vhcurveto
            endchar
          </CharString>
          <CharString index="14">
            -83 callgsubr
            -29 -71 hvcurveto
            return
          </CharString>
          <CharString index="15">
            vlineto
            -76 callsubr
            return
          </CharString>
          <CharString index="16">
            114 169 callgsubr
          </CharString>
          <CharString index="17">
            hlineto
            -91 callgsubr
            return
          </CharString>
          <CharString index="18">
            -21 -100 callsubr
            return
          </CharString>
          <CharString index="19">
            hlineto
            -22 -100 callsubr
            return
          </CharString>
          <CharString index="20">
            -28 -71 callsubr
            return
          </CharString>
          <CharString index="21">
            151 callsubr
            -46 -30 callgsubr
            267 35 callgsubr
            46 130 callsubr
            -108 112 rmoveto
            -77 -30 105 callsubr
            30 292 callgsubr
            76 30 36 63 hvcurveto
            293 vlineto
            63 -30 36 -76 vhcurveto
            endchar
          </CharString>
          <CharString index="22">
            -63 callsubr
            8 hvcurveto
            return
          </CharString>
          <CharString index="23">
            rmoveto
            354 callsubr
            -42 284 callgsubr
            22 hvcurveto
            118 19 callgsubr
            return
          </CharString>
          <CharString index="24">
            hlineto
            -89 callsubr
            return
          </CharString>
          <CharString index="25">
            -43 callgsubr
            -16 15 -32 hhcurveto
            return
          </CharString>
          <CharString index="26">
            -61 28 -58 callsubr
            -30 hlineto
            -22 230 callgsubr
            return
          </CharString>
          <CharString index="27">
            -86 callgsubr
            -103 hlineto
            return
          </CharString>
          <CharString index="28">
            7 -99 callsubr
            return
          </CharString>
          <CharString index="29">
            -62 callgsubr
            -142 hlineto
            return
          </CharString>
          <CharString index="30">
            rmoveto
            -29 callsubr
            -38 -30 callgsubr
            71 -115 -87 -37 callgsubr
            108 -20 callsubr
            165 vlineto
            63 -30 35 -75 vhcurveto
            -79 -30 callgsubr
            127 35 callgsubr
            38 -70 callsubr
            -72 116 88 307 callsubr
            -76 vhcurveto
            -110 hlineto
            -77 380 callgsubr
            -155 vlineto
            -63 28 -37 75 vhcurveto
            81 -70 callsubr
            return
          </CharString>
          <CharString index="31">
            21 -97 callgsubr
            return
          </CharString>
          <CharString index="32">
            21 -79 callsubr
            return
          </CharString>
          <CharString index="33">
            272 callsubr
            -46 114 68 vlineto
            66 -37 28 -61 vhcurveto
            endchar
          </CharString>
          <CharString index="34">
            -26 -52 callsubr
            return
          </CharString>
          <CharString index="35">
            -78 callsubr
            -21 return
          </CharString>
          <CharString index="36">
            -29 -62 hvcurveto
            return
          </CharString>
          <CharString index="37">
            hlineto
            22 6 -6 -21 hvcurveto
            return
          </CharString>
          <CharString index="38">
            14 callsubr
            117 124 callgsubr
            -22 return
          </CharString>
          <CharString index="39">
            vlineto
            -56 callgsubr
            return
          </CharString>
          <CharString index="40">
            -5 -21 vhcurveto
            -24 -78 59 hlineto
            78 28 428 callgsubr
            -34 29 -68 vhcurveto
            -62 337 callsubr
            vlineto
            endchar
          </CharString>
          <CharString index="41">
            52 302 55 -302 rlineto
            40 -218 rmoveto
            116 hlineto
            -133 631 rlineto
            -155 hlineto
            -127 -631 rlineto
            115 hlineto
            22 131 rlineto
            138 hlineto
            endchar
          </CharString>
          <CharString index="42">
            162 -62 callsubr
            return
          </CharString>
          <CharString index="43">
            hlineto
            18 -41 callgsubr
          </CharString>
          <CharString index="44">
            62 hlineto
            20 13 4 8 return
          </CharString>
          <CharString index="45">
            hlineto
            19 -61 callgsubr
            return
          </CharString>
          <CharString index="46">
            32 444 callgsubr
            61 434 callsubr
            62 -33 29 -68 -63 callgsubr
            -126 212 callgsubr
            -110 return
          </CharString>
          <CharString index="47">
            195 rmoveto
            -81 callgsubr
            90 hlineto
            return
          </CharString>
          <CharString index="48">
            297 callgsubr
            -293 281 callsubr
            return
          </CharString>
          <CharString index="49">
            144 callsubr
            100 -113 -86 356 callgsubr
            -18 vhcurveto
            return
          </CharString>
          <CharString index="50">
            113 -67 callgsubr
            return
          </CharString>
          <CharString index="51">
            -21 callsubr
            -7 -7 return
          </CharString>
          <CharString index="52">
            114 548 return
          </CharString>
          <CharString index="53">
            vlineto
            -32 callsubr
            return
          </CharString>
          <CharString index="54">
            38 callgsubr
            78 26 34 62 hvcurveto
            67 128 callsubr
            -398 -114 rmoveto
            114 168 228 callgsubr
            -295 -245 74 callgsubr
            return
          </CharString>
          <CharString index="55">
            -8 -8 -26 vhcurveto
            return
          </CharString>
          <CharString index="56">
            -6 -45 callgsubr
            return
          </CharString>
          <CharString index="57">
            -68 callsubr
            31 hlineto
            23 return
          </CharString>
          <CharString index="58">
            6 16 callsubr
            -36 28 -62 vhcurveto
            endchar
          </CharString>
          <CharString index="59">
            -92 callgsubr
            28 78 -61 -96 callgsubr
            return
          </CharString>
          <CharString index="60">
            32 -30 -31 callsubr
            30 return
          </CharString>
          <CharString index="61">
            387 callsubr
            117 152 callgsubr
            92 vlineto
            71 -33 29 -82 vhcurveto
            -70 -83 43 153 callgsubr
            -22 hvcurveto
            -71 vlineto
            -23 -7 -5 -21 vhcurveto
            -63 -64 callgsubr
            return
          </CharString>
          <CharString index="62">
            76 32 29 66 hvcurveto
            188 12 callsubr
            return
          </CharString>
          <CharString index="63">
            20 -42 callgsubr
            return
          </CharString>
          <CharString index="64">
            -91 callgsubr
            155 vlineto
            71 -9 50 0 vhcurveto
            0 17 -48 32 -61 vhcurveto
            return
          </CharString>
          <CharString index="65">
            vlineto
            283 callsubr
            return
          </CharString>
          <CharString index="66">
            vlineto
            21 36 callsubr
            return
          </CharString>
          <CharString index="67">
            -116 -98 hlineto
            -70 callgsubr
            return
          </CharString>
          <CharString index="68">
            -15 callgsubr
            -78 -28 -29 -62 hvcurveto
            return
          </CharString>
          <CharString index="69">
            vlineto
            -36 callgsubr
            return
          </CharString>
          <CharString index="70">
            rmoveto
            -8 callgsubr
            33 355 rmoveto
            -52 callgsubr
            114 491 -112 vlineto
            return
          </CharString>
          <CharString index="71">
            -77 callgsubr
            290 return
          </CharString>
          <CharString index="72">
            -20 callgsubr
            -15 return
          </CharString>
          <CharString index="73">
            -90 callsubr
            87 vlineto
            22 386 callgsubr
            return
          </CharString>
          <CharString index="74">
            62 hlineto
            20 14 175 callgsubr
            return
          </CharString>
          <CharString index="75">
            23 -79 callsubr
            return
          </CharString>
          <CharString index="76">
            83 156 callgsubr
            32 return
          </CharString>
          <CharString index="77">
            85 38 28 66 hvcurveto
            191 vlineto
            62 -28 34 -78 vhcurveto
            return
          </CharString>
          <CharString index="78">
            -21 -6 -6 -22 vhcurveto
            return
          </CharString>
          <CharString index="79">
            13 232 callsubr
            return
          </CharString>
          <CharString index="80">
            rmoveto
            -84 116 84 hlineto
            -198 100 callgsubr
            379 282 rmoveto
            -1180 -90 callgsubr
            456 -116 -98 231 callgsubr
            -131 vlineto
            -25 -10 -7 373 callgsubr
            22 hvcurveto
            170 -48 callsubr
            -193 vlineto
            329 callsubr
            65 hlineto
            29 20 8 18 10 hvcurveto
            -18 18 30 -8 43 hhcurveto
            12 callgsubr
            154 84 442 callgsubr
          </CharString>
          <CharString index="81">
            -83 261 -40 callsubr
            return
          </CharString>
          <CharString index="82">
            rmoveto
            298 callsubr
            92 callgsubr
            return
          </CharString>
          <CharString index="83">
            77 32 36 63 hvcurveto
            return
          </CharString>
          <CharString index="84">
            343 callsubr
            122 66 vlineto
            -45 callsubr
            return
          </CharString>
          <CharString index="85">
            330 callsubr
            28 callsubr
            59 84 -24 hlineto
            -21 return
          </CharString>
          <CharString index="86">
            -6 -26 175 callsubr
            -26 return
          </CharString>
          <CharString index="87">
            hlineto
            -24 callsubr
            return
          </CharString>
          <CharString index="88">
            -71 32 -29 83 vhcurveto
            12 callgsubr
            return
          </CharString>
          <CharString index="89">
            190 -22 callgsubr
            return
          </CharString>
          <CharString index="90">
            10 hlineto
            65 19 31 51 hvcurveto
            35 -94 -20 vlineto
            -18 -5 -5 -13 vhcurveto
            -23 -33 43 -49 hhcurveto
            -12 hlineto
            -64 -20 -33 -52 hvcurveto
            -32 94 return
          </CharString>
          <CharString index="91">
            hlineto
            33 callsubr
            return
          </CharString>
          <CharString index="92">
            hlineto
            4 callgsubr
            return
          </CharString>
          <CharString index="93">
            432 rmoveto
            -97 116 97 hlineto
            -211 -343 -84 callsubr
            return
          </CharString>
          <CharString index="94">
            rmoveto
            18 4 6 21 vhcurveto
            34 hlineto
            21 4 -6 -18 hvcurveto
            -9 vlineto
            -18 -4 -5 -21 vhcurveto
            -34 hlineto
            -21 -4 5 18 hvcurveto
            78 -79 rmoveto
            58 23 26 49 hvcurveto
            17 vlineto
            49 -23 27 -58 vhcurveto
            -72 hlineto
            -58 -23 -27 -49 hvcurveto
            -17 vlineto
            -49 23 -26 58 vhcurveto
            return
          </CharString>
          <CharString index="95">
            rmoveto
            -37 -25 -15 -30 -9 hvcurveto
            45 410 callgsubr
            370 vlineto
            24 10 9 21 vhcurveto
            30 -70 callsubr
            -376 114 392 259 callgsubr
          </CharString>
          <CharString index="96">
            -359 -99 callgsubr
            return
          </CharString>
          <CharString index="97">
            -5 callsubr
            -100 return
          </CharString>
          <CharString index="98">
            26 6 -6 -26 hvcurveto
            -170 129 callsubr
            -28 158 -114 -376 hlineto
            157 callsubr
            230 84 -208 343 callsubr
            114 66 vlineto
            76 32 28 66 hvcurveto
            197 12 callsubr
            return
          </CharString>
          <CharString index="99">
            -70 6 callsubr
            return
          </CharString>
          <CharString index="100">
            36 -10 callsubr
            return
          </CharString>
          <CharString index="101">
            -77 -32 105 callsubr
            32 -36 77 vhcurveto
            98 -20 callsubr
            67 -111 -51 vlineto
            -29 callsubr
            -36 166 callgsubr
            36 302 callsubr
            return
          </CharString>
          <CharString index="102">
            4 -21 callgsubr
            return
          </CharString>
          <CharString index="103">
            vlineto
            -21 -7 -5 -21 vhcurveto
            return
          </CharString>
          <CharString index="104">
            -73 callsubr
            -119 -83 callsubr
            87 vlineto
            22 -79 callsubr
            68 83 -68 -83 callsubr
            113 -92 callgsubr
            8 hlineto
            22 155 callsubr
            -41 69 59 vlineto
            62 -33 29 -69 vhcurveto
            -43 hlineto
            -69 -32 365 callsubr
            15 301 callgsubr
            -15 -15 -32 vvcurveto
            return
          </CharString>
          <CharString index="105">
            344 callgsubr
            71 vhcurveto
            31 hlineto
            return
          </CharString>
          <CharString index="106">
            -103 callgsubr
            -264 -80 callgsubr
            64 -9 hlineto
            -102 callsubr
            return
          </CharString>
          <CharString index="107">
            34 callgsubr
            -32 vvcurveto
            return
          </CharString>
          <CharString index="108">
            vlineto
            -33 16 327 callsubr
            return
          </CharString>
          <CharString index="109">
            rmoveto
            1 callgsubr
            return
          </CharString>
          <CharString index="110">
            -6 32 callsubr
            return
          </CharString>
          <CharString index="111">
            -70 -47 callsubr
            70 hvcurveto
            return
          </CharString>
          <CharString index="112">
            26 -3 vhcurveto
            -3 vlineto
            -26 -3 return
          </CharString>
          <CharString index="113">
            33 -30 82 vhcurveto
            return
          </CharString>
          <CharString index="114">
            95 callsubr
            184 hlineto
            return
          </CharString>
          <CharString index="115">
            33 callsubr
            80 -9 vlineto
            return
          </CharString>
          <CharString index="116">
            rmoveto
            95 105 -95 hlineto
            return
          </CharString>
          <CharString index="117">
            -32 callgsubr
            548 return
          </CharString>
          <CharString index="118">
            vhcurveto
            439 callgsubr
            -91 callsubr
          </CharString>
          <CharString index="119">
            vlineto
            12 -3 8 -4 6 vhcurveto
            return
          </CharString>
          <CharString index="120">
            22 -97 callgsubr
            return
          </CharString>
          <CharString index="121">
            28 30 callsubr
            return
          </CharString>
          <CharString index="122">
            vlineto
            251 callsubr
            26 callsubr
            35 hlineto
            21 7 121 callsubr
            -7 -67 callsubr
          </CharString>
          <CharString index="123">
            260 callgsubr
            113 68 vlineto
            66 return
          </CharString>
          <CharString index="124">
            -100 callgsubr
            -189 113 189 275 callgsubr
            return
          </CharString>
          <CharString index="125">
            114 callsubr
            -60 344 callsubr
            return
          </CharString>
          <CharString index="126">
            -228 -80 callgsubr
            80 -306 hlineto
            276 callgsubr
            -7 5 22 hvcurveto
            return
          </CharString>
          <CharString index="127">
            -2 callsubr
            38 25 16 33 8 hvcurveto
            -49 return
          </CharString>
          <CharString index="128">
            -30 78 vhcurveto
            return
          </CharString>
          <CharString index="129">
            -83 64 26 callgsubr
            return
          </CharString>
          <CharString index="130">
            32 -30 83 vhcurveto
            return
          </CharString>
          <CharString index="131">
            rmoveto
            -777 233 callsubr
            84 -157 57 callgsubr
            -328 hlineto
            -24 -10 -8 -23 vhcurveto
            -30 hlineto
            45 callsubr
            113 171 rlineto
            -117 111 -9 callgsubr
          </CharString>
          <CharString index="132">
            -4 vlineto
            -26 -3 -16 200 callsubr
            33 -29 69 vhcurveto
            return
          </CharString>
          <CharString index="133">
            367 -40 callgsubr
            return
          </CharString>
          <CharString index="134">
            98 hlineto
            78 14 callsubr
            return
          </CharString>
          <CharString index="135">
            28 21 callsubr
            return
          </CharString>
          <CharString index="136">
            -2 8 -5 6 vhcurveto
            return
          </CharString>
          <CharString index="137">
            30 61 hvcurveto
            return
          </CharString>
          <CharString index="138">
            -64 29 -30 55 292 callsubr
            122 hlineto
            103 391 callgsubr
          </CharString>
          <CharString index="139">
            6 21 hvcurveto
            return
          </CharString>
          <CharString index="140">
            -98 callgsubr
            -210 111 callsubr
            return
          </CharString>
          <CharString index="141">
            206 callsubr
            113 69 vlineto
            21 return
          </CharString>
          <CharString index="142" raw="1">
            de1ee306 ddac0b  
          </CharString>
          <CharString index="143">
            6 6 22 vhcurveto
            return
          </CharString>
          <CharString index="144">
            vlineto
            -5 callgsubr
          </CharString>
          <CharString index="145">
            -10 -8 -23 41 callsubr
            return
          </CharString>
          <CharString index="146">
            25 callgsubr
            -159 vlineto
            -23 callgsubr
            return
          </CharString>
          <CharString index="147">
            hlineto
            151 callgsubr
            return
          </CharString>
          <CharString index="148">
            vhcurveto
            -30 -83 callsubr
            return
          </CharString>
          <CharString index="149">
            63 184 callgsubr
            return
          </CharString>
          <CharString index="150">
            -24 callgsubr
            219 75 66 callsubr
          </CharString>
          <CharString index="151">
            341 callsubr
            -98 hlineto
            -77 -28 -34 -62 hvcurveto
            -56 113 43 -92 callsubr
            28 -15 callsubr
            return
          </CharString>
          <CharString index="152">
            -89 callsubr
            151 -48 callsubr
            -175 vlineto
            -60 26 -31 51 -7 vhcurveto
            -108 -161 rlineto
            120 hlineto
            return
          </CharString>
          <CharString index="153">
            rmoveto
            83 -70 callsubr
            -158 vlineto
            -29 callsubr
            -83 hlineto
            134 -331 rmoveto
            124 hlineto
            -105 249 rlineto
            51 10 22 34 52 vvcurveto
            187 11 callgsubr
            -232 -631 115 246 38 hlineto
            endchar
          </CharString>
          <CharString index="154">
            vlineto
            33 callsubr
            return
          </CharString>
          <CharString index="155">
            rmoveto
            -23 -7 -5 -21 vhcurveto
            -34 -88 callsubr
            return
          </CharString>
          <CharString index="156">
            -24 38 callsubr
            return
          </CharString>
          <CharString index="157">
            48 callsubr
            120 -92 callgsubr
            63 hlineto
            393 365 callgsubr
            -97 119 hlineto
            -58 callgsubr
            -106 183 callsubr
            -149 18 callgsubr
            157 97 -335 -91 callsubr
          </CharString>
          <CharString index="158">
            59 84 -24 hlineto
            -21 -7 5 22 hvcurveto
            259 vlineto
            22 7 5 21 177 callgsubr
          </CharString>
          <CharString index="159">
            -4 hlineto
            26 -2 -20 15 -37 hhcurveto
            -108 hlineto
            -67 -35 -29 -71 hvcurveto
            -201 vlineto
            -70 -3 callgsubr
            108 hlineto
            37 20 15 26 2 hvcurveto
            4 hlineto
            -26 3 19 -15 37 hhcurveto
            106 hlineto
            68 34 -31 callgsubr
            201 vlineto
            return
          </CharString>
          <CharString index="160">
            -292 -308 rlineto
            118 hlineto
            174 186 rlineto
            -123 return
          </CharString>
          <CharString index="161">
            71 callgsubr
            -54 22 -30 59 -6 vhcurveto
            -84 -144 21 callgsubr
            -83 145 rlineto
            54 8 20 29 52 vvcurveto
            -33 callgsubr
            return
          </CharString>
          <CharString index="162">
            380 callsubr
            -189 113 189 vlineto
            21 5 351 callgsubr
            65 hlineto
            endchar
          </CharString>
          <CharString index="163">
            rmoveto
            -43 callsubr
            93 274 callgsubr
            return
          </CharString>
          <CharString index="164">
            152 callgsubr
            -51 callgsubr
            endchar
          </CharString>
          <CharString index="165">
            vhcurveto
            -24 84 callgsubr
            21 vhcurveto
            return
          </CharString>
          <CharString index="166">
            -83 64 75 callgsubr
            return
          </CharString>
          <CharString index="167">
            29 -30 77 120 callsubr
            return
          </CharString>
          <CharString index="168">
            rmoveto
            151 104 83 -479 -83 262 419 callgsubr
            -65 28 -30 69 -4 vhcurveto
            -84 -144 226 callsubr
            144 rlineto
            64 6 27 30 63 vvcurveto
            195 callsubr
          </CharString>
          <CharString index="169">
            hlineto
            -7 callsubr
            return
          </CharString>
          <CharString index="170">
            hlineto
            -21 84 callsubr
            return
          </CharString>
          <CharString index="171">
            -6 263 115 151 callsubr
            -48 -35 callgsubr
            166 76 vlineto
            202 callgsubr
            -105 113 rmoveto
            149 -41 callsubr
            44 -70 callsubr
            -81 113 97 11 callgsubr
            -109 122 callgsubr
            114 -20 callsubr
            169 11 callgsubr
            endchar
          </CharString>
          <CharString index="172">
            -23 -8 -5 -21 vhcurveto
            -83 -83 callsubr
            108 -68 callsubr
            return
          </CharString>
          <CharString index="173">
            -397 -91 callsubr
          </CharString>
          <CharString index="174">
            -90 callsubr
            96 301 callsubr
            82 -53 -90 callsubr
            93 vlineto
            return
          </CharString>
          <CharString index="175">
            rmoveto
            -116 -105 116 hlineto
            -204 105 rmoveto
            -116 -105 116 hlineto
            return
          </CharString>
          <CharString index="176">
            vlineto
            -61 60 callsubr
            return
          </CharString>
          <CharString index="177">
            vlineto
            15 -4 11 -7 8 vhcurveto
            return
          </CharString>
          <CharString index="178">
            vlineto
            9 10 5 14 20 vvcurveto
            122 vlineto
            68 -31 32 -84 vhcurveto
            -71 hlineto
            -84 -31 -32 -68 hvcurveto
            -144 vlineto
            -65 29 -32 77 -3 vhcurveto
            -148 -139 rlineto
            133 hlineto
            147 139 rlineto
            return
          </CharString>
          <CharString index="179">
            -25 -52 callsubr
            -44 -90 callsubr
            180 -68 callsubr
            33 82 -233 171 callsubr
            75 hlineto
            return
          </CharString>
          <CharString index="180">
            -37 vlineto
            108 callsubr
            -56 -30 callgsubr
            37 -102 -38 vlineto
            -63 32 -36 76 vhcurveto
            return
          </CharString>
          <CharString index="181">
            216 rmoveto
            -23 -8 -7 128 callgsubr
            334 92 vlineto
            return
          </CharString>
          <CharString index="182">
            122 -20 callsubr
            return
          </CharString>
          <CharString index="183">
            215 callgsubr
            29 428 callgsubr
            -35 29 -67 vhcurveto
            -62 hlineto
            -20 -14 408 callsubr
          </CharString>
          <CharString index="184">
            vlineto
            -8 callsubr
            return
          </CharString>
          <CharString index="185">
            rmoveto
            151 67 83 -442 -83 262 419 callgsubr
            -60 24 -31 59 -7 vhcurveto
            -85 -145 21 callgsubr
            -84 147 rlineto
            51 9 21 31 56 vvcurveto
            -51 callgsubr
            endchar
          </CharString>
          <CharString index="186">
            85 callgsubr
            186 219 callgsubr
            78 return
          </CharString>
          <CharString index="187">
            -83 68 -210 hlineto
            0 callsubr
            -134 vlineto
            return
          </CharString>
          <CharString index="188">
            180 callsubr
            135 -54 callsubr
            30 273 callgsubr
            return
          </CharString>
          <CharString index="189">
            195 88 callsubr
            return
          </CharString>
          <CharString index="190">
            1 callsubr
            -2 -16 -15 -33 vvcurveto
            return
          </CharString>
          <CharString index="191">
            -6 85 callsubr
            return
          </CharString>
          <CharString index="192">
            -102 callgsubr
            180 -54 callsubr
            return
          </CharString>
          <CharString index="193" raw="1">
            07f7151d 0b  
          </CharString>
          <CharString index="194">
            hlineto
            28 6 16 callsubr
            -37 28 -61 vhcurveto
            endchar
          </CharString>
          <CharString index="195">
            rmoveto
            -81 callgsubr
            90 hlineto
            184 callsubr
            return
          </CharString>
          <CharString index="196">
            rmoveto
            431 callsubr
            -36 -90 callsubr
            334 92 vlineto
            return
          </CharString>
          <CharString index="197">
            -83 68 27 callgsubr
            return
          </CharString>
          <CharString index="198">
            hlineto
            18 -28 callsubr
            return
          </CharString>
          <CharString index="199">
            -77 -32 -36 -63 hvcurveto
            return
          </CharString>
          <CharString index="200">
            8 377 253 callgsubr
            71 83 -468 -83 283 -69 -109 246 callsubr
            -44 vlineto
            -62 28 callsubr
            98 -15 callsubr
            -24 -49 callgsubr
            -75 hlineto
            -19 -6 5 21 hvcurveto
            19 -114 -49 vlineto
            -36 16 -16 -20 callgsubr
            -16 -33 vvcurveto
            return
          </CharString>
          <CharString index="201">
            -290 vlineto
            -87 callgsubr
            84 return
          </CharString>
          <CharString index="202">
            -73 callsubr
            -142 hlineto
            33 callgsubr
            return
          </CharString>
          <CharString index="203">
            -51 139 516 rmoveto
            21 7 6 22 vhcurveto
            29 -70 callsubr
            -53 vlineto
            -46 -7 -28 -28 -42 vhcurveto
            -163 -264 rlineto
            -83 315 88 -179 vlineto
            131 229 rlineto
            31 48 14 37 59 vvcurveto
            71 vlineto
            63 -33 36 -77 vhcurveto
            -96 162 callsubr
            -110 115 vlineto
            endchar
          </CharString>
          <CharString index="204">
            28 66 hvcurveto
            191 vlineto
            62 -28 34 -78 vhcurveto
            185 -3 rmoveto
            -631 113 401 callgsubr
          </CharString>
          <CharString index="205">
            976 43 callgsubr
            -996 -83 425 hlineto
            26 7 -6 -26 hvcurveto
            -162 vlineto
            -26 -7 -6 -26 vhcurveto
            -28 149 -228 -96 callgsubr
            -289 vlineto
            -61 28 callsubr
            59 84 -24 hlineto
            -21 -7 5 22 hvcurveto
            252 -92 callgsubr
            80 -294 hlineto
            -66 38 -29 85 vhcurveto
            return
          </CharString>
          <CharString index="206">
            90 callsubr
            109 hlineto
            31 21 7 16 15 hvcurveto
            -16 19 24 -7 44 hhcurveto
            return
          </CharString>
          <CharString index="207">
            -358 hlineto
            -23 -8 -6 -21 323 callgsubr
            271 callsubr
            return
          </CharString>
          <CharString index="208">
            70 callsubr
            91 hlineto
            return
          </CharString>
          <CharString index="209">
            3 378 532 rmoveto
            42 callsubr
            -116 122 callgsubr
            116 -20 callsubr
            -115 16 151 callsubr
            -46 -35 callgsubr
            401 -41 callsubr
            46 130 callsubr
            endchar
          </CharString>
          <CharString index="210">
            346 callsubr
            251 hmoveto
            83 -521 59 callsubr
            333 vlineto
            22 28 callgsubr
            109 83 -97 hlineto
            -20 -13 -4 -9 -8 hvcurveto
            116 vlineto
            endchar
          </CharString>
          <CharString index="211">
            rmoveto
            -477 -83 295 100 callsubr
            -233 -82 72 hlineto
            -8 -8 -5 -13 -18 174 callsubr
            74 358 callgsubr
          </CharString>
          <CharString index="212">
            137 callgsubr
            -63 return
          </CharString>
          <CharString index="213">
            -21 158 401 rmoveto
            142 203 88 -317 -318 178 vlineto
            202 callgsubr
            -171 vlineto
            108 callsubr
            -38 -35 callgsubr
            92 -116 -108 -37 callgsubr
            107 -20 callsubr
            203 vlineto
            62 -32 37 -77 vhcurveto
            endchar
          </CharString>
          <CharString index="214">
            -61 29 144 callsubr
            return
          </CharString>
          <CharString index="215">
            -21 197 callgsubr
            return
          </CharString>
          <CharString index="216">
            69 callsubr
            259 6 callgsubr
            81 -397 290 callgsubr
          </CharString>
          <CharString index="217">
            65 83 -639 -83 461 -69 -89 vlineto
            166 callsubr
            -102 hlineto
            -68 -34 -29 -71 hvcurveto
            201 callsubr
            78 vhcurveto
            74 84 -39 308 callgsubr
            return
          </CharString>
          <CharString index="218">
            -7 callgsubr
            219 return
          </CharString>
          <CharString index="219">
            -39 callgsubr
            261 -41 callsubr
            return
          </CharString>
          <CharString index="220">
            303 callgsubr
            -114 -71 vlineto
            return
          </CharString>
          <CharString index="221">
            141 callgsubr
            -30 45 vhcurveto
            return
          </CharString>
          <CharString index="222">
            326 callgsubr
            201 callsubr
            78 vhcurveto
            236 callgsubr
            31 hlineto
            22 55 callsubr
          </CharString>
          <CharString index="223">
            26 292 631 261 callsubr
            return
          </CharString>
          <CharString index="224">
            163 hlineto
            18 -61 callgsubr
            69 vlineto
            endchar
          </CharString>
          <CharString index="225">
            -82 callgsubr
            105 -113 return
          </CharString>
          <CharString index="226">
            -71 callsubr
            182 callgsubr
            return
          </CharString>
          <CharString index="227">
            vhcurveto
            59 84 135 callsubr
            return
          </CharString>
          <CharString index="228">
            -5 -23 355 callsubr
            -22 return
          </CharString>
          <CharString index="229">
            5 callsubr
            -15 return
          </CharString>
          <CharString index="230">
            131 callsubr
            -288 vlineto
            return
          </CharString>
          <CharString index="231">
            -358 vlineto
            244 callsubr
            181 123 callgsubr
            -59 hlineto
            -77 -29 -29 -62 hvcurveto
            -210 117 callgsubr
          </CharString>
          <CharString index="232">
            88 rmoveto
            -8 callgsubr
            return
          </CharString>
          <CharString index="233">
            -193 -290 hlineto
            -36 callsubr
            -113 return
          </CharString>
          <CharString index="234">
            -221 156 hmoveto
            491 -113 -491 vlineto
            return
          </CharString>
          <CharString index="235">
            70 callsubr
            90 hlineto
            return
          </CharString>
          <CharString index="236">
            vlineto
            -26 -7 -7 -25 vhcurveto
            return
          </CharString>
          <CharString index="237">
            hlineto
            202 callgsubr
            return
          </CharString>
          <CharString index="238">
            -77 -29 -71 callsubr
            return
          </CharString>
          <CharString index="239">
            -83 252 -69 -87 vlineto
            154 callsubr
            return
          </CharString>
          <CharString index="240">
            rmoveto
            -635 -83 453 -69 -193 208 callsubr
            76 callgsubr
            vlineto
            endchar
          </CharString>
          <CharString index="241">
            78 hlineto
            82 33 244 callgsubr
            return
          </CharString>
          <CharString index="242">
            -24 -54 callgsubr
            return
          </CharString>
          <CharString index="243">
            204 hlineto
            -215 -455 rlineto
            -88 328 88 -210 vlineto
            215 455 rlineto
            return
          </CharString>
          <CharString index="244">
            -210 vlineto
            -70 return
          </CharString>
          <CharString index="245">
            -47 -25 -20 -44 hvcurveto
            -18 -4 vlineto
            26 -1 -19 18 -43 hhcurveto
            -293 hlineto
            -1 callgsubr
            -68 114 46 vlineto
            28 5 5 28 vhcurveto
            219 349 callgsubr
            83 -68 return
          </CharString>
          <CharString index="246">
            rmoveto
            20 5 6 22 vhcurveto
            21 hlineto
            21 6 -6 -20 hvcurveto
            -136 vlineto
            -20 -6 -6 -21 vhcurveto
            -21 hlineto
            -22 -5 6 20 hvcurveto
            return
          </CharString>
          <CharString index="247">
            -197 54 43 callgsubr
            -631 115 631 vlineto
            return
          </CharString>
          <CharString index="248">
            36 5 -6 -27 hvcurveto
            return
          </CharString>
          <CharString index="249">
            -47 -25 -20 -44 hvcurveto
            -18 -4 vlineto
            26 -1 -19 18 -43 hhcurveto
            -117 406 callsubr
            6 5 28 vhcurveto
            43 349 callgsubr
            83 -68 return
          </CharString>
          <CharString index="250">
            -193 vlineto
            -58 26 -29 55 -4 vhcurveto
            325 callgsubr
            -109 427 callgsubr
            vlineto
            -23 -8 -7 269 callsubr
            155 -54 callsubr
            endchar
          </CharString>
          <CharString index="251">
            -30 77 205 callgsubr
            return
          </CharString>
          <CharString index="252">
            181 callsubr
            -62 vlineto
            -33 16 -15 -35 callsubr
            -33 vvcurveto
            return
          </CharString>
          <CharString index="253">
            -84 -143 226 callsubr
            143 rlineto
            return
          </CharString>
          <CharString index="254">
            -83 63 -370 hlineto
            4 callsubr
            370 return
          </CharString>
          <CharString index="255">
            vhcurveto
            -71 112 callgsubr
            return
          </CharString>
          <CharString index="256">
            130 hlineto
            15 11 2 5 8 hvcurveto
            return
          </CharString>
          <CharString index="257">
            hlineto
            13 callgsubr
            return
          </CharString>
          <CharString index="258">
            rmoveto
            108 callsubr
            return
          </CharString>
          <CharString index="259">
            hlineto
            141 callsubr
            return
          </CharString>
          <CharString index="260">
            rmoveto
            -23 -7 -5 -22 vhcurveto
            -42 188 callsubr
            -399 -160 rmoveto
            -23 -7 -5 -21 vhcurveto
            -24 -88 callsubr
            134 41 callgsubr
            return
          </CharString>
          <CharString index="261">
            -98 callgsubr
            -55 callgsubr
            return
          </CharString>
          <CharString index="262">
            6 -5 -21 hvcurveto
            return
          </CharString>
          <CharString index="263">
            -90 callsubr
            155 -92 callsubr
            29 243 callsubr
            34 -29 68 360 callsubr
            68 vlineto
            endchar
          </CharString>
          <CharString index="264">
            -66 39 -29 85 vhcurveto
            return
          </CharString>
          <CharString index="265">
            -42 callsubr
            76 callgsubr
            vlineto
            endchar
          </CharString>
          <CharString index="266">
            311 callsubr
            163 hlineto
            18 13 4 return
          </CharString>
          <CharString index="267">
            -87 hlineto
            -80 callsubr
            return
          </CharString>
          <CharString index="268">
            vhcurveto
            167 callgsubr
            return
          </CharString>
          <CharString index="269">
            hlineto
            92 callsubr
            return
          </CharString>
          <CharString index="270">
            383 callsubr
            22 vhcurveto
            return
          </CharString>
          <CharString index="271">
            162 callgsubr
            239 callsubr
            181 vlineto
            22 -79 callsubr
            24 82 return
          </CharString>
          <CharString index="272">
            rmoveto
            -73 callsubr
            -142 -83 callsubr
            return
          </CharString>
          <CharString index="273">
            -33 -43 callgsubr
            -15 15 -33 hhcurveto
            return
          </CharString>
          <CharString index="274">
            -85 -38 -28 -67 hvcurveto
            return
          </CharString>
          <CharString index="275">
            -65 callsubr
            69 vlineto
            endchar
          </CharString>
          <CharString index="276">
            344 callgsubr
            71 vhcurveto
            70 hlineto
            39 32 20 26 11 hvcurveto
            -26 12 30 -20 46 hhcurveto
            73 hlineto
            76 33 36 63 hvcurveto
            50 -112 -36 vlineto
            -29 callsubr
            -42 -30 callgsubr
            98 return
          </CharString>
          <CharString index="277">
            -70 32 418 callgsubr
            -139 114 321 -114 -81 vlineto
            431 callsubr
            -32 hlineto
            131 callgsubr
            171 vlineto
            22 -79 callsubr
            endchar
          </CharString>
          <CharString index="278">
            -82 73 hlineto
            -9 -8 -5 -12 -19 174 callsubr
            return
          </CharString>
          <CharString index="279">
            rmoveto
            116 105 -116 hlineto
            204 -105 rmoveto
            116 105 -116 hlineto
            return
          </CharString>
          <CharString index="280">
            15 6 8 12 vhcurveto
            23 34 -43 50 hhcurveto
            return
          </CharString>
          <CharString index="281">
            vvcurveto
            229 callsubr
            return
          </CharString>
          <CharString index="282">
            hvcurveto
            -131 vlineto
            return
          </CharString>
          <CharString index="283">
            251 callgsubr
            211 callsubr
          </CharString>
          <CharString index="284">
            26 34 62 hvcurveto
            return
          </CharString>
          <CharString index="285">
            374 callsubr
            302 callgsubr
            return
          </CharString>
          <CharString index="286">
            152 callsubr
            -107 -4 callsubr
            return
          </CharString>
          <CharString index="287">
            rmoveto
            -23 -8 -5 -21 41 callsubr
            return
          </CharString>
          <CharString index="288">
            -83 269 -69 -95 vlineto
            131 callsubr
            return
          </CharString>
          <CharString index="289">
            433 11 callgsubr
            return
          </CharString>
          <CharString index="290">
            -98 246 callsubr
            return
          </CharString>
          <CharString index="291">
            182 83 rmoveto
            return
          </CharString>
          <CharString index="292">
            66 -37 28 -61 vhcurveto
            -317 hlineto
            -62 -36 -28 -66 hvcurveto
            -68 113 46 vlineto
            28 5 5 29 vhcurveto
            219 349 callgsubr
            return
          </CharString>
          <CharString index="293">
            -15 405 211 rmoveto
            -60 122 -109 -122 -124 hlineto
            208 420 rlineto
            -115 hlineto
            -198 -411 rlineto
            -98 229 -122 109 122 60 vlineto
            endchar
          </CharString>
          <CharString index="294">
            -78 callsubr
            131 callgsubr
            return
          </CharString>
          <CharString index="295">
            283 callgsubr
            72 hlineto
            return
          </CharString>
          <CharString index="296">
            vlineto
            62 -32 29 -69 vhcurveto
            return
          </CharString>
          <CharString index="297">
            hlineto
            21 433 callsubr
            return
          </CharString>
          <CharString index="298">
            -28 -30 -61 hvcurveto
            return
          </CharString>
          <CharString index="299">
            537 795 195 165 callsubr
            39 20 vlineto
            78 26 34 61 hvcurveto
            66 341 callgsubr
            -200 63 384 hlineto
            return
          </CharString>
          <CharString index="300">
            -96 callgsubr
            -179 vlineto
            329 callsubr
            56 hlineto
            22 14 5 10 8 hvcurveto
            return
          </CharString>
          <CharString index="301">
            vlineto
            -59 27 -29 57 -3 vhcurveto
            271 callgsubr
            103 371 callgsubr
            return
          </CharString>
          <CharString index="302">
            92 vlineto
            71 -33 29 -82 vhcurveto
            -70 -83 43 153 callgsubr
            -22 hvcurveto
            -71 vlineto
            -23 -7 -5 -21 vhcurveto
            -63 -64 callgsubr
            endchar
          </CharString>
          <CharString index="303">
            279 vlineto
            69 -30 29 -77 2 vhcurveto
            69 vlineto
            endchar
          </CharString>
          <CharString index="304">
            244 callsubr
            186 219 callgsubr
            78 70 callgsubr
            76 hlineto
            return
          </CharString>
          <CharString index="305">
            -3 vlineto
            -26 -3 -16 -15 -32 vvcurveto
            -111 vlineto
            -62 30 -29 63 vhcurveto
            80 258 callgsubr
            104 391 callgsubr
          </CharString>
          <CharString index="306">
            hlineto
            -62 30 -29 63 vhcurveto
            103 258 callgsubr
            return
          </CharString>
          <CharString index="307">
            -15 -32 416 callgsubr
            -62 return
          </CharString>
          <CharString index="308">
            -288 vlineto
            -61 28 -30 return
          </CharString>
          <CharString index="309">
            -4 -8 -8 hvcurveto
            return
          </CharString>
          <CharString index="310">
            rmoveto
            112 hlineto
            52 77 53 -77 404 callsubr
            -106 137 rlineto
            -117 hlineto
            endchar
          </CharString>
          <CharString index="311">
            432 rmoveto
            -98 116 98 hlineto
            -211 return
          </CharString>
          <CharString index="312">
            -92 callsubr
            108 hlineto
            77 29 30 62 hvcurveto
            50 vlineto
            62 -29 30 -77 vhcurveto
            -98 414 callsubr
            18 -92 callgsubr
            endchar
          </CharString>
          <CharString index="313">
            -28 -34 -62 hvcurveto
            -82 return
          </CharString>
          <CharString index="314">
            -62 callgsubr
            -141 hlineto
            -21 -8 -45 callgsubr
            91 hlineto
            return
          </CharString>
          <CharString index="315">
            -290 hlineto
            -87 callgsubr
            return
          </CharString>
          <CharString index="316">
            -297 58 callgsubr
          </CharString>
          <CharString index="317">
            hlineto
            -21 -7 5 22 hvcurveto
            258 -54 callsubr
            return
          </CharString>
          <CharString index="318">
            113 169 callgsubr
          </CharString>
          <CharString index="319">
            hlineto
            -78 -28 -34 -62 hvcurveto
            return
          </CharString>
          <CharString index="320">
            333 callgsubr
            -163 vlineto
            -62 30 -29 64 vhcurveto
            1 hlineto
            271 callgsubr
            return
          </CharString>
          <CharString index="321">
            196 634 -196 hlineto
            236 -185 rmoveto
            196 185 -196 hlineto
            return
          </CharString>
          <CharString index="322">
            -95 rmoveto
            -21 -9 -9 -22 vhcurveto
            -44 -83 67 hlineto
            78 37 37 67 hvcurveto
            55 -107 vlineto
            return
          </CharString>
          <CharString index="323">
            -164 37 callgsubr
            return
          </CharString>
          <CharString index="324">
            151 69 83 -449 -83 267 -69 -93 return
          </CharString>
          <CharString index="325">
            -30 -35 callgsubr
            return
          </CharString>
          <CharString index="326">
            -83 64 -353 242 callgsubr
            return
          </CharString>
          <CharString index="327">
            384 callsubr
            -294 347 callgsubr
            669 return
          </CharString>
          <CharString index="328">
            -548 -91 callsubr
          </CharString>
          <CharString index="329">
            189 vlineto
            21 return
          </CharString>
          <CharString index="330">
            -26 177 125 callsubr
            return
          </CharString>
          <CharString index="331">
            -70 callgsubr
            97 -349 -91 callsubr
          </CharString>
          <CharString index="332">
            58 callsubr
            54 hlineto
            return
          </CharString>
          <CharString index="333">
            21 callgsubr
            -82 return
          </CharString>
          <CharString index="334">
            399 callgsubr
            82 33 30 70 hvcurveto
            return
          </CharString>
          <CharString index="335">
            77 callsubr
            88 152 callgsubr
            return
          </CharString>
          <CharString index="336">
            404 callgsubr
            -3 callgsubr
            return
          </CharString>
          <CharString index="337">
            -158 303 callsubr
            return
          </CharString>
          <CharString index="338">
            69 383 callsubr
            return
          </CharString>
          <CharString index="339">
            175 callgsubr
            -91 return
          </CharString>
          <CharString index="340">
            -83 206 hlineto
            26 6 -6 -26 hvcurveto
            -162 409 callsubr
            -28 319 callgsubr
            -376 hlineto
            157 callsubr
            179 return
          </CharString>
          <CharString index="341">
            162 -64 callsubr
          </CharString>
          <CharString index="342">
            250 callgsubr
            19 -29 callgsubr
            548 68 vlineto
            endchar
          </CharString>
          <CharString index="343">
            hlineto
            -82 callgsubr
            127 return
          </CharString>
          <CharString index="344">
            rmoveto
            -201 38 vlineto
            80 141 rlineto
            60 vlineto
            endchar
          </CharString>
          <CharString index="345">
            74 269 callgsubr
            return
          </CharString>
          <CharString index="346">
            -35 -83 callsubr
            return
          </CharString>
          <CharString index="347">
            130 callgsubr
            69 return
          </CharString>
          <CharString index="348">
            hlineto
            248 callsubr
            return
          </CharString>
          <CharString index="349">
            -8 vlineto
            -146 413 callsubr
            12 callgsubr
            154 97 -349 -91 callsubr
          </CharString>
          <CharString index="350">
            78 -61 -96 callgsubr
            -179 vlineto
            -71 return
          </CharString>
          <CharString index="351">
            7 callgsubr
            -21 vhcurveto
            -36 -90 callsubr
            return
          </CharString>
          <CharString index="352">
            12 29 callsubr
            return
          </CharString>
          <CharString index="353">
            vlineto
            -98 callgsubr
            return
          </CharString>
          <CharString index="354">
            -358 hlineto
            7 callgsubr
            return
          </CharString>
          <CharString index="355">
            8 callsubr
            137 callsubr
            return
          </CharString>
          <CharString index="356">
            -21 -7 5 21 hvcurveto
            33 -92 callgsubr
            166 147 return
          </CharString>
          <CharString index="357">
            -230 34 135 rmoveto
            -277 38 vlineto
            84 328 callsubr
            return
          </CharString>
          <CharString index="358">
            211 callgsubr
            114 return
          </CharString>
          <CharString index="359">
            -166 101 callgsubr
            return
          </CharString>
          <CharString index="360">
            -370 hlineto
            -70 return
          </CharString>
          <CharString index="361">
            vlineto
            329 callsubr
            38 hlineto
            -97 -149 303 callsubr
            102 161 rlineto
            -107 -91 callsubr
          </CharString>
          <CharString index="362">
            -32 rmoveto
            410 callgsubr
            323 hlineto
            48 21 24 42 vhcurveto
            42 98 -18 hlineto
            -48 -30 -29 -36 -10 hvcurveto
            endchar
          </CharString>
          <CharString index="363">
            244 callgsubr
            69 vlineto
            endchar
          </CharString>
          <CharString index="364">
            151 callgsubr
            110 return
          </CharString>
          <CharString index="365">
            46 hlineto
            20 157 callgsubr
            return
          </CharString>
          <CharString index="366">
            4 8 8 hvcurveto
            return
          </CharString>
          <CharString index="367">
            -83 276 -69 -102 hlineto
            131 callsubr
            -62 vlineto
            -33 16 -15 -35 callsubr
            -33 vvcurveto
            return
          </CharString>
          <CharString index="368">
            rmoveto
            -412 vlineto
            -133 412 rlineto
            -111 -631 106 418 hlineto
            135 -418 rlineto
            108 631 hlineto
            return
          </CharString>
          <CharString index="369">
            -32 277 callgsubr
          </CharString>
          <CharString index="370">
            299 callgsubr
            -48 callgsubr
            return
          </CharString>
          <CharString index="371">
            -358 hlineto
            85 callgsubr
            return
          </CharString>
          <CharString index="372">
            269 43 callgsubr
            -289 -83 289 hlineto
            return
          </CharString>
          <CharString index="373">
            267 callgsubr
            83 -68 return
          </CharString>
          <CharString index="374">
            379 callgsubr
            hlineto
            -23 -7 -5 return
          </CharString>
          <CharString index="375">
            6 callsubr
            89 hlineto
            82 33 30 return
          </CharString>
          <CharString index="376">
            -21 vhcurveto
            -33 -90 callsubr
            return
          </CharString>
          <CharString index="377">
            vlineto
            245 callsubr
            return
          </CharString>
          <CharString index="378">
            27 8 1 36 vhcurveto
            16 82 return
          </CharString>
          <CharString index="379">
            hlineto
            28 5 -5 -28 hvcurveto
            return
          </CharString>
          <CharString index="380">
            -77 -87 callsubr
            return
          </CharString>
          <CharString index="381">
            397 rmoveto
            151 return
          </CharString>
          <CharString index="382">
            -157 -23 callsubr
            return
          </CharString>
          <CharString index="383">
            hlineto
            -36 callgsubr
            97 -349 -91 callsubr
          </CharString>
          <CharString index="384">
            hlineto
            280 callsubr
          </CharString>
          <CharString index="385">
            -32 78 vhcurveto
            86 hlineto
            19 12 3 8 8 hvcurveto
            -83 113 448 -113 -65 vlineto
            -20 -7 -5 -21 vhcurveto
            return
          </CharString>
          <CharString index="386">
            190 rmoveto
            79 callsubr
            return
          </CharString>
          <CharString index="387">
            4 callsubr
            370 84 221 callsubr
          </CharString>
          <CharString index="388">
            -2 callsubr
            35 24 14 28 10 hvcurveto
            return
          </CharString>
          <CharString index="389">
            174 callgsubr
            -55 callsubr
            return
          </CharString>
          <CharString index="390">
            4 callsubr
            219 return
          </CharString>
          <CharString index="391">
            hlineto
            -26 444 callsubr
            122 67 vlineto
            76 31 29 66 hvcurveto
            188 12 callsubr
            return
          </CharString>
          <CharString index="392">
            47 callsubr
            80 return
          </CharString>
          <CharString index="393">
            rlineto
            73 callgsubr
            return
          </CharString>
          <CharString index="394">
            vlineto
            -70 35 -30 67 266 callgsubr
            -91 callsubr
          </CharString>
          <CharString index="395">
            -99 callsubr
            80 424 callsubr
            hlineto
            endchar
          </CharString>
          <CharString index="396">
            vlineto
            19 6 6 21 vhcurveto
            endchar
          </CharString>
          <CharString index="397">
            384 callgsubr
            69 hlineto
            endchar
          </CharString>
          <CharString index="398">
            hlineto
            78 28 29 62 hvcurveto
            return
          </CharString>
          <CharString index="399">
            -5 vhcurveto
            -103 -159 rlineto
            return
          </CharString>
          <CharString index="400">
            362 callsubr
            181 378 callgsubr
            return
          </CharString>
          <CharString index="401">
            346 callgsubr
            548 69 vlineto
            endchar
          </CharString>
          <CharString index="402">
            vlineto
            -22 -6 -5 -19 vhcurveto
            -30 -54 callgsubr
            return
          </CharString>
          <CharString index="403">
            246 callsubr
            -59 vlineto
            -62 28 callsubr
            return
          </CharString>
          <CharString index="404">
            hlineto
            -26 -5 5 26 hvcurveto
            24 vlineto
            26 5 5 26 vhcurveto
            return
          </CharString>
          <CharString index="405">
            -91 callgsubr
            359 92 return
          </CharString>
          <CharString index="406">
            hhcurveto
            -31 340 callsubr
            return
          </CharString>
          <CharString index="407">
            -41 callsubr
            30 hlineto
            return
          </CharString>
          <CharString index="408">
            -68 callsubr
            53 return
          </CharString>
          <CharString index="409">
            -70 callsubr
            -50 return
          </CharString>
          <CharString index="410">
            rlineto
            121 hlineto
            return
          </CharString>
          <CharString index="411">
            vlineto
            -65 28 -29 56 -5 vhcurveto
            -103 -159 408 callgsubr
            return
          </CharString>
          <CharString index="412">
            167 callsubr
            -131 vlineto
            -71 268 callsubr
            71 hvcurveto
            295 return
          </CharString>
          <CharString index="413">
            -124 hlineto
            -126 -314 125 -317 rlineto
            124 hlineto
            -129 317 rlineto
            endchar
          </CharString>
          <CharString index="414">
            vlineto
            63 -32 36 return
          </CharString>
          <CharString index="415">
            hlineto
            20 13 4 9 8 hvcurveto
            -91 389 callgsubr
            return
          </CharString>
          <CharString index="416">
            rmoveto
            183 callgsubr
            24 -43 69 -112 rcurveline
            -97 -90 callsubr
            return
          </CharString>
          <CharString index="417">
            rmoveto
            -118 hlineto
            -107 -236 106 -255 rlineto
            119 hlineto
            -110 255 rlineto
            endchar
          </CharString>
          <CharString index="418">
            -5 -21 vhcurveto
            -100 -124 hlineto
            -23 callgsubr
            return
          </CharString>
          <CharString index="419">
            -24 -7 -5 -22 vhcurveto
            -84 hlineto
            -22 -7 5 24 hvcurveto
            return
          </CharString>
          <CharString index="420">
            30 callsubr
            117 435 callsubr
            -22 -6 -5 return
          </CharString>
          <CharString index="421">
            -23 -8 353 callsubr
            return
          </CharString>
          <CharString index="422">
            9 callgsubr
            63 return
          </CharString>
          <CharString index="423">
            hlineto
            125 193 rlineto
            return
          </CharString>
          <CharString index="424">
            hlineto
            -21 -6 5 20 hvcurveto
            return
          </CharString>
          <CharString index="425">
            -23 -8 -7 -22 vhcurveto
            return
          </CharString>
          <CharString index="426">
            -90 callsubr
            94 -68 callsubr
            44 hlineto
            22 433 callsubr
            return
          </CharString>
          <CharString index="427">
            216 89 callsubr
            return
          </CharString>
          <CharString index="428">
            -47 -30 -20 -26 -12 hvcurveto
            26 -11 -32 20 -39 hhcurveto
            -70 340 callsubr
            return
          </CharString>
          <CharString index="429">
            hlineto
            79 37 -31 callgsubr
            288 vlineto
            59 -29 291 callgsubr
          </CharString>
          <CharString index="430">
            -223 hlineto
            -89 6 -32 141 callgsubr
            return
          </CharString>
          <CharString index="431">
            -76 -32 -36 -63 hvcurveto
            -79 -50 -88 50 -403 return
          </CharString>
          <CharString index="432">
            rmoveto
            303 79 -303 hlineto
            endchar
          </CharString>
          <CharString index="433">
            hlineto
            375 callgsubr
            return
          </CharString>
          <CharString index="434">
            -15 376 callgsubr
            return
          </CharString>
          <CharString index="435">
            205 rlineto
            72 vlineto
            return
          </CharString>
          <CharString index="436">
            -71 35 -29 67 vhcurveto
            return
          </CharString>
          <CharString index="437">
            -297 vlineto
            -61 return
          </CharString>
          <CharString index="438">
            rmoveto
            163 68 83 -677 -83 495 -80 -93 vlineto
            273 callsubr
            return
          </CharString>
          <CharString index="439">
            -92 vlineto
            251 callsubr
            return
          </CharString>
          <CharString index="440">
            -5 -21 vhcurveto
            -42 283 callgsubr
            return
          </CharString>
          <CharString index="441">
            hlineto
            36 -5 callsubr
            399 249 rmoveto
            return
          </CharString>
          <CharString index="442">
            83 -186 -90 callsubr
            94 -68 callsubr
            44 hlineto
            return
          </CharString>
          <CharString index="443">
            -160 212 43 callgsubr
            -193 -88 78 -543 115 hlineto
            endchar
          </CharString>
          <CharString index="444">
            40 callsubr
            80 return
          </CharString>
          <CharString index="445">
            -353 vlineto
            -73 callsubr
            return
          </CharString>
          <CharString index="446">
            26 3 15 15 33 vvcurveto
            return
          </CharString>
          <CharString index="447">
            hlineto
            -71 380 callgsubr
            return
          </CharString>
          <CharString index="448">
            hlineto
            62 -28 34 -78 vhcurveto
            return
          </CharString>
          <CharString index="449">
            2 callgsubr
            -22 vhcurveto
            return
          </CharString>
          <CharString index="450">
            hlineto
            -25 444 callsubr
            return
          </CharString>
          <CharString index="451">
            101 rlineto
            74 78 return
          </CharString>
          <CharString index="452">
            313 callsubr
            -19 vhcurveto
            -30 hlineto
            -21 return
          </CharString>
          <CharString index="453">
            -22 callgsubr
            359 92 vlineto
            return
          </CharString>
          <CharString index="454">
            vlineto
            -70 35 -30 67 91 callgsubr
            114 return
          </CharString>
          <CharString index="455">
            -6 82 callgsubr
            20 -37 25 -43 72 -112 rcurveline
            return
          </CharString>
          <CharString index="456">
            459 200 callgsubr
            return
          </CharString>
          <CharString index="457">
            64 callgsubr
            hlineto
            endchar
          </CharString>
          <CharString index="458">
            -83 68 -370 vlineto
            -70 -3 callgsubr
            return
          </CharString>
          <CharString index="459">
            230 callsubr
            103 163 rlineto
            return
          </CharString>
          <CharString index="460">
            -5 -21 vhcurveto
            -27 -83 callsubr
            return
          </CharString>
          <CharString index="461">
            -22 -7 -5 -21 vhcurveto
            return
          </CharString>
          <CharString index="462">
            hvcurveto
            -186 vlineto
            return
          </CharString>
          <CharString index="463">
            -87 hlineto
            166 callsubr
            return
          </CharString>
          <CharString index="464">
            -2 -103 -159 rcurveline
            122 hlineto
            103 371 callgsubr
            return
          </CharString>
          <CharString index="465">
            hlineto
            119 callgsubr
          </CharString>
          <CharString index="466">
            hlineto
            283 callsubr
            return
          </CharString>
          <CharString index="467">
            vhcurveto
            56 hlineto
            22 14 5 10 8 hvcurveto
            -116 111 548 return
          </CharString>
          <CharString index="468">
            5 22 hvcurveto
            57 -113 -71 vlineto
            -61 28 callsubr
            101 hlineto
            return
          </CharString>
          <CharString index="469">
            -358 hlineto
            50 callgsubr
            return
          </CharString>
          <CharString index="470">
            -90 callsubr
            113 vlineto
            return
          </CharString>
          <CharString index="471">
            rmoveto
            -122 -105 122 hlineto
            return
          </CharString>
          <CharString index="472">
            -71 callsubr
            -148 vlineto
            -33 return
          </CharString>
          <CharString index="473">
            212 callsubr
            -56 return
          </CharString>
          <CharString index="474">
            21 vlineto
            77 177 callsubr
            return
          </CharString>
          <CharString index="475">
            rmoveto
            -303 -79 303 hlineto
            return
          </CharString>
          <CharString index="476">
            403 callgsubr
            -21 vhcurveto
            return
          </CharString>
          <CharString index="477">
            88 rmoveto
            -39 callgsubr
            return
          </CharString>
          <CharString index="478">
            98 414 callgsubr
            return
          </CharString>
          <CharString index="479">
            -96 -90 callsubr
            return
          </CharString>
          <CharString index="480">
            vlineto
            -22 -6 -5 -22 vhcurveto
            return
          </CharString>
          <CharString index="481">
            vlineto
            433 callgsubr
            return
          </CharString>
          <CharString index="482">
            -100 callsubr
            290 return
          </CharString>
          <CharString index="483">
            -182 hlineto
            1 -83 rlineto
            return
          </CharString>
          <CharString index="484">
            -26 -6 -7 -26 vhcurveto
            -51 return
          </CharString>
          <CharString index="485">
            -82 -33 -30 -70 hvcurveto
            return
          </CharString>
          <CharString index="486">
            -70 415 callgsubr
            return
          </CharString>
          <CharString index="487">
            5 -7 -21 hvcurveto
            return
          </CharString>
          <CharString index="488">
            -90 callsubr
            180 vlineto
            20 6 8 22 vhcurveto
            return
          </CharString>
          <CharString index="489" raw="1">
            f81f0af7 37069d98 8f0b 
          </CharString>
          <CharString index="490">
            vlineto
            21 6 5 return
          </CharString>
          <CharString index="491">
            28 -10 -24 14 -35 299 callsubr
            return
          </CharString>
          <CharString index="492">
            -21 -6 5 19 hvcurveto
            23 vlineto
            20 330 callgsubr
            return
          </CharString>
          <CharString index="493">
            -130 159 -115 -159 -130 -84 130 return
          </CharString>
          <CharString index="494">
            123 callsubr
            -70 33 -30 82 vhcurveto
            return
          </CharString>
          <CharString index="495">
            77 callsubr
            78 152 callgsubr
            return
          </CharString>
          <CharString index="496">
            vlineto
            -62 28 -30 77 vhcurveto
            57 45 callgsubr
            return
          </CharString>
          <CharString index="497">
            hlineto
            26 5 -5 -26 hvcurveto
            -24 vlineto
            -26 -5 -5 -26 vhcurveto
            return
          </CharString>
          <CharString index="498">
            rmoveto
            -201 38 vlineto
            81 141 rlineto
            60 vlineto
            endchar
          </CharString>
          <CharString index="499">
            -121 hlineto
            113 -137 rlineto
            return
          </CharString>
          <CharString index="500">
            137 callsubr
            34 -30 68 vhcurveto
            return
          </CharString>
          <CharString index="501">
            412 callgsubr
            -23 vhcurveto
            return
          </CharString>
          <CharString index="502" raw="1">
            f8311dd9 1e0b  
          </CharString>
          <CharString index="503">
            -343 rmoveto
            354 callsubr
            return
          </CharString>
          <CharString index="504">
            -83 86 152 callsubr
            return
          </CharString>
          <CharString index="505">
            hlineto
            20 157 callgsubr
            -60 return
          </CharString>
          <CharString index="506">
            -204 hlineto
            -23 callgsubr
            return
          </CharString>
          <CharString index="507">
            328 callsubr
            endchar
          </CharString>
          <CharString index="508">
            -43 73 -112 rcurveline
            return
          </CharString>
          <CharString index="509">
            22 6 5 22 vhcurveto
            return
          </CharString>
          <CharString index="510" raw="1">
            6c1df806 0b  
          </CharString>
          <CharString index="511">
            rlineto
            112 hlineto
            return
          </CharString>
          <CharString index="512">
            7 callgsubr
            -22 vhcurveto
            -32 -83 callsubr
            return
          </CharString>
          <CharString index="513">
            hlineto
            -1 callgsubr
            -68 113 46 vlineto
            28 return
          </CharString>
          <CharString index="514">
            vlineto
            -89 6 -32 114 callsubr
            return
          </CharString>
          <CharString index="515">
            202 callsubr
            81 vlineto
            endchar
          </CharString>
          <CharString index="516">
            vlineto
            -26 -7 -6 -25 vhcurveto
            return
          </CharString>
          <CharString index="517">
            vlineto
            62 -28 30 -78 vhcurveto
            return
          </CharString>
          <CharString index="518">
            hlineto
            83 33 29 71 hvcurveto
            return
          </CharString>
          <CharString index="519">
            vlineto
            -23 -7 -5 -22 vhcurveto
            return
          </CharString>
          <CharString index="520">
            vlineto
            -71 33 -29 82 vhcurveto
            return
          </CharString>
          <CharString index="521">
            hlineto
            -21 -7 5 21 hvcurveto
            return
          </CharString>
          <CharString index="522">
            -33 30 -82 vhcurveto
            return
          </CharString>
          <CharString index="523">
            28 -7 41 hhcurveto
            return
          </CharString>
          <CharString index="524">
            hlineto
            238 callgsubr
            return
          </CharString>
          <CharString index="525">
            vlineto
            238 callgsubr
            return
          </CharString>
          <CharString index="526">
            5 21 hvcurveto
            41 vlineto
            25 5 6 22 1 vhcurveto
            return
          </CharString>
          <CharString index="527">
            270 callgsubr
            90 hlineto
            -411 return
          </CharString>
          <CharString index="528">
            154 rlineto
            -113 hlineto
            -116 -154 rlineto
            return
          </CharString>
          <CharString index="529">
            -387 rmoveto
            298 callsubr
            return
          </CharString>
          <CharString index="530">
            hlineto
            -30 -155 rlineto
            99 hlineto
            30 155 rlineto
            return
          </CharString>
          <CharString index="531">
            -397 -93 callgsubr
            return
          </CharString>
          <CharString index="532">
            -4 callsubr
            -100 return
          </CharString>
          <CharString index="533">
            20 vlineto
            77 177 callsubr
            return
          </CharString>
          <CharString index="534">
            -82 hlineto
            167 callsubr
            return
          </CharString>
          <CharString index="535">
            114 124 callgsubr
            -23 return
          </CharString>
          <CharString index="536">
            -83 257 -116 -98 hlineto
            return
          </CharString>
          <CharString index="537">
            253 callgsubr
            87 83 return
          </CharString>
          <CharString index="538">
            -23 -8 -7 -21 vhcurveto
            return
          </CharString>
          <CharString index="539">
            rmoveto
            151 69 83 return
          </CharString>
          <CharString index="540">
            7 -5 -23 hvcurveto
            return
          </CharString>
          <CharString index="541">
            hvcurveto
            158 vlineto
            return
          </CharString>
          <CharString index="542">
            -114 -103 vlineto
            return
          </CharString>
          <CharString index="543">
            548 rmoveto
            83 return
          </CharString>
          <CharString index="544">
            -114 -88 hlineto
            -74 -29 -27 -55 -3 hvcurveto
            return
          </CharString>
          <CharString index="545">
            -183 33 vlineto
            53 127 rlineto
            56 vlineto
            return
          </CharString>
          <CharString index="546">
            -30 83 vhcurveto
            77 190 callgsubr
            return
          </CharString>
          <CharString index="547">
            vhcurveto
            149 callsubr
            return
          </CharString>
          <CharString index="548">
            -8 hlineto
            -146 vlineto
            -71 32 -29 83 vhcurveto
            return
          </CharString>
          <CharString index="549">
            vlineto
            20 6 6 return
          </CharString>
          <CharString index="550">
            -110 vlineto
            -66 return
          </CharString>
          <CharString index="551">
            -7 7 26 hvcurveto
            return
          </CharString>
        <CharString name=".notdef">
          333 171 hmoveto
          410 701 -410 hlineto
          66 -61 rmoveto
          279 -579 -279 hlineto
          endchar
        </CharString>
        <CharString name="A">
          11 160 218 rmoveto
          -66 callsubr
        </CharString>
        <CharString name="AE">
          214 204 225 rmoveto
          106 293 rlineto
          -293 vlineto
          111 -137 rmoveto
          191 155 89 -155 175 185 88 -359 vlineto
          -239 -631 rlineto
          114 hlineto
          50 139 rlineto
          138 -139 304 88 hlineto
          endchar
        </CharString>
        <CharString name="Aacute">
          11 374 800 23 callgsubr
          -101 -445 rmoveto
          -66 callsubr
        </CharString>
        <CharString name="Abreve">
          11 263 663 rmoveto
          76 32 36 63 hvcurveto
          38 -102 73 callsubr
          -1 -445 rmoveto
          -66 callsubr
        </CharString>
        <CharString name="Acircumflex">
          11 212 740 16 callgsubr
          -445 vmoveto
          -66 callsubr
        </CharString>
        <CharString name="Adieresis">
          11 372 767 68 callsubr
          -8 -444 rmoveto
          -66 callsubr
        </CharString>
        <CharString name="Agrave">
          11 253 663 90 callgsubr
          1 -445 rmoveto
          -66 callsubr
        </CharString>
        <CharString name="Amacron">
          11 364 741 368 callsubr
          -204 -444 rmoveto
          -66 callsubr
        </CharString>
        <CharString name="Aogonek">
          11 160 218 rmoveto
          52 302 55 -302 rlineto
          90 -384 101 callgsubr
          106 -3 hlineto
          -130 619 rlineto
          -155 hlineto
          -127 -631 rlineto
          115 hlineto
          22 131 rlineto
          138 hlineto
          24 -131 rlineto
          39 -21 -7 hlineto
          350 callsubr
        </CharString>
        <CharString name="Aring">
          11 171 750 -13 callsubr
          -17 -444 rmoveto
          -66 callsubr
        </CharString>
        <CharString name="Atilde">
          11 144 683 rmoveto
          173 callsubr
          -17 callsubr
          vlineto
          16 -445 rmoveto
          -66 callsubr
        </CharString>
        <CharString name="B">
          20 48 43 callgsubr
          -631 240 vlineto
          -24 callsubr
          148 vlineto
          39 -12 23 -30 10 vhcurveto
          30 10 12 28 39 vvcurveto
          136 11 callgsubr
          -5 -520 151 callsubr
          -91 193 91 hlineto
          22 7 -5 -22 hvcurveto
          138 vmoveto
          108 callsubr
          -91 186 91 130 callsubr
          endchar
        </CharString>
        <CharString name="C">
          -9 378 422 -34 callgsubr
        </CharString>
        <CharString name="CR">
          -259 endchar
        </CharString>
        <CharString name="Cacute">
          -9 369 800 23 callgsubr
          122 -241 -34 callgsubr
        </CharString>
        <CharString name="Ccaron">
          -9 268 663 rmoveto
          -26 callgsubr
          106 -137 rlineto
          227 -241 -34 callgsubr
        </CharString>
        <CharString name="Ccedilla">
          -9 158 215 callsubr
          220 471 -34 callgsubr
        </CharString>
        <CharString name="D">
          26 286 111 193 callgsubr
        </CharString>
        <CharString name="Dcaron">
          26 278 663 rmoveto
          -26 callgsubr
          106 -137 rlineto
          125 -552 193 callgsubr
        </CharString>
        <CharString name="Dcroat">
          30 286 339 callgsubr
          -90 189 69 83 -69 183 90 -70 callsubr
          -233 115 rmoveto
          -271 -52 -83 52 -277 240 vlineto
          119 callgsubr
        </CharString>
        <CharString name="E">
          -46 164 88 rmoveto
          191 51 callgsubr
          vlineto
          endchar
        </CharString>
        <CharString name="Eacute">
          -46 356 800 23 callgsubr
          -79 -384 rmoveto
          51 callgsubr
          -192 hlineto
          endchar
        </CharString>
        <CharString name="Ecaron">
          -46 258 663 rmoveto
          -26 callgsubr
          106 -137 rlineto
          23 -384 rmoveto
          51 callgsubr
          -192 hlineto
          endchar
        </CharString>
        <CharString name="Ecircumflex">
          -46 200 740 16 callgsubr
          16 -384 rmoveto
          51 callgsubr
          -192 hlineto
          endchar
        </CharString>
        <CharString name="Edieresis">
          -24 154 767 rmoveto
          -116 -105 116 hlineto
          10 -383 rmoveto
          51 callgsubr
          -192 hlineto
          78 679 rmoveto
          -105 116 105 vlineto
          endchar
        </CharString>
        <CharString name="Edotaccent">
          -46 267 768 364 callsubr
          -103 -575 rmoveto
          191 51 callgsubr
          vlineto
          endchar
        </CharString>
        <CharString name="Egrave">
          -46 246 663 90 callgsubr
          12 -575 rmoveto
          191 51 callgsubr
          vlineto
          endchar
        </CharString>
        <CharString name="Emacron">
          -46 348 751 368 callsubr
          -184 -584 rmoveto
          191 51 callgsubr
          vlineto
          endchar
        </CharString>
        <CharString name="Eogonek">
          -46 291 252 callsubr
          106 -1 76 -192 191 155 89 -155 175 184 88 -300 -631 232 -21 -7 hlineto
          350 callsubr
        </CharString>
        <CharString name="Eth">
          25 286 111 426 callgsubr
          193 69 83 -69 187 405 callgsubr
          -271 -52 -83 52 -277 240 vlineto
          119 callgsubr
        </CharString>
        <CharString name="Euro">
          13 400 422 rmoveto
          110 11 callgsubr
          -117 hlineto
          -76 -32 -36 -63 hvcurveto
          -119 -45 -74 45 -46 -45 -76 45 -119 vlineto
          -62 32 -37 76 443 callgsubr
          431 callgsubr
          108 -116 -96 vlineto
          -29 callsubr
          -46 hlineto
          -23 3 callsubr
          107 79 76 -79 46 79 74 -79 107 vlineto
          21 6 6 23 vhcurveto
          46 -70 callsubr
          -98 vlineto
          endchar
        </CharString>
        <CharString name="F">
          -57 354 543 rmoveto
          88 -306 -631 116 267 155 84 -155 192 vlineto
          endchar
        </CharString>
        <CharString name="G">
          -4 378 437 8 callgsubr
        </CharString>
        <CharString name="Gbreve">
          -4 262 663 rmoveto
          76 32 36 63 hvcurveto
          38 -102 73 callsubr
          218 -226 8 callgsubr
        </CharString>
        <CharString name="H">
          36 293 43 callgsubr
          -274 -130 274 -115 -631 115 269 130 -269 115 631 vlineto
          endchar
        </CharString>
        <CharString name="I">
          140 callsubr
          endchar
        </CharString>
        <CharString name="Iacute">
          140 callsubr
          -104 32 120 callgsubr
          endchar
        </CharString>
        <CharString name="Icircumflex">
          140 callsubr
          -222 32 203 callsubr
        </CharString>
        <CharString name="Idieresis">
          -197 -49 662 172 callsubr
          -101 -136 rmoveto
          -631 115 631 vlineto
          endchar
        </CharString>
        <CharString name="Idotaccent">
          140 callsubr
          -119 41 rmoveto
          122 105 -122 hlineto
          endchar
        </CharString>
        <CharString name="Igrave">
          140 callsubr
          -97 169 307 callgsubr
        </CharString>
        <CharString name="Imacron">
          140 callsubr
          -209 41 325 callsubr
        </CharString>
        <CharString name="Iogonek">
          -197 103 252 callsubr
          725 -115 -631 38 -21 -7 hlineto
          350 callsubr
        </CharString>
        <CharString name="J">
          -50 13 221 rmoveto
          -122 -37 callgsubr
          94 -20 callsubr
          532 -116 -516 vlineto
          -29 callsubr
          -24 -30 callgsubr
          106 vlineto
          endchar
        </CharString>
        <CharString name="K">
          6 48 hmoveto
          115 631 -115 hlineto
          370 hmoveto
          306 callsubr
        </CharString>
        <CharString name="L">
          -86 163 88 rmoveto
          257 callgsubr
        </CharString>
        <CharString name="Lacute">
          -86 267 800 23 callgsubr
          9 -575 rmoveto
          257 callgsubr
        </CharString>
        <CharString name="Lcaron">
          -86 269 803 rmoveto
          -112 hlineto
          -53 -77 -52 77 345 callgsubr
          106 -137 rlineto
          117 hlineto
          -578 vmoveto
          257 callgsubr
        </CharString>
        <CharString name="Lslash">
          -74 167 88 rmoveto
          214 vlineto
          104 49 rlineto
          84 vlineto
          -104 -49 rlineto
          245 -115 -300 vlineto
          -79 -37 rlineto
          -84 vlineto
          79 37 rlineto
          -247 283 88 vlineto
          endchar
        </CharString>
        <CharString name="M">
          141 327 137 rmoveto
          84 306 rlineto
          -443 101 631 -126 vlineto
          -106 -375 -106 375 rlineto
          -126 -631 102 442 hlineto
          84 -305 rlineto
          endchar
        </CharString>
        <CharString name="N">
          116 callsubr
          endchar
        </CharString>
        <CharString name="NULL">
          -420 endchar
        </CharString>
        <CharString name="Nacute">
          26 173 663 120 callgsubr
          33 -169 249 callgsubr
        </CharString>
        <CharString name="Ncaron">
          26 165 662 rmoveto
          117 hlineto
          -26 callgsubr
          233 -168 249 callgsubr
        </CharString>
        <CharString name="Ntilde">
          116 callsubr
          -111 32 rmoveto
          -17 callsubr
          20 vlineto
          173 callsubr
          endchar
        </CharString>
        <CharString name="O">
          9 269 115 -85 callgsubr
        </CharString>
        <CharString name="OE">
          195 282 111 151 callsubr
          -53 -35 callgsubr
          409 -41 callsubr
          53 130 callsubr
          112 -436 rmoveto
          198 155 83 -155 182 184 84 -272 -20 vlineto
          13 -15 -21 7 -28 hhcurveto
          -76 122 callgsubr
          77 hlineto
          28 20 7 12 15 hvcurveto
          -19 280 84 vlineto
          endchar
        </CharString>
        <CharString name="Oacute">
          9 371 800 23 callgsubr
          11 -548 -85 callgsubr
        </CharString>
        <CharString name="Ocircumflex">
          9 212 740 16 callgsubr
          109 -548 -85 callgsubr
        </CharString>
        <CharString name="Odieresis">
          2 374 767 68 callsubr
          99 -547 -85 callgsubr
        </CharString>
        <CharString name="Ograve">
          9 254 663 90 callgsubr
          109 -548 -85 callgsubr
        </CharString>
        <CharString name="Ohungarumlaut">
          2 324 662 107 callgsubr
          85 -547 -85 callgsubr
        </CharString>
        <CharString name="Omacron">
          9 365 741 368 callsubr
          -96 -547 -85 callgsubr
        </CharString>
        <CharString name="Oslash">
          14 277 109 rmoveto
          -21 -6 -6 -23 vhcurveto
          -62 hlineto
          -21 -7 5 18 -1 hvcurveto
          120 278 rlineto
          -120 139 rmoveto
          21 7 6 22 vhcurveto
          62 hlineto
          23 6 -6 -21 hvcurveto
          -1 vlineto
          -120 -279 rlineto
          236 409 rmoveto
          -60 hlineto
          -11 -25 rlineto
          3 -12 -15 2 -17 hhcurveto
          -122 162 callsubr
          -433 vlineto
          -28 6 -22 14 -17 vhcurveto
          -23 -52 rlineto
          59 hlineto
          11 25 rlineto
          -3 12 14 -2 16 hhcurveto
          75 callsubr
          433 vlineto
          26 -6 22 -12 16 vhcurveto
          endchar
        </CharString>
        <CharString name="Otilde">
          9 150 683 rmoveto
          173 callsubr
          -17 callsubr
          vlineto
          119 -548 -85 callgsubr
        </CharString>
        <CharString name="P">
          -5 274 347 rmoveto
          -29 callsubr
          -83 223 83 -70 callsubr
          -226 115 rmoveto
          -631 115 232 117 vlineto
          431 callgsubr
          201 11 callgsubr
          endchar
        </CharString>
        <CharString name="Q">
          9 159 516 rmoveto
          21 7 6 22 vhcurveto
          53 -70 callsubr
          -401 vlineto
          -29 callsubr
          -53 -30 callgsubr
          252 -199 rmoveto
          -77 94 rlineto
          35 15 15 31 43 vvcurveto
          182 callsubr
          -122 122 callgsubr
          65 hlineto
          67 -84 rlineto
          endchar
        </CharString>
        <CharString name="R">
          10 163 543 46 callsubr
        </CharString>
        <CharString name="Racute">
          10 367 799 23 callgsubr
          -91 -119 46 callsubr
        </CharString>
        <CharString name="Rcaron">
          10 271 662 rmoveto
          -26 callgsubr
          106 -137 rlineto
          9 -119 46 callsubr
        </CharString>
        <CharString name="S">
          -21 248 115 55 callgsubr
        </CharString>
        <CharString name="Sacute">
          -21 156 663 120 callgsubr
          6 54 callgsubr
        </CharString>
        <CharString name="Scaron">
          -21 141 663 rmoveto
          117 hlineto
          -26 callgsubr
          213 54 callgsubr
        </CharString>
        <CharString name="T">
          -74 341 43 callgsubr
          -336 217 callgsubr
          hlineto
          endchar
        </CharString>
        <CharString name="Tcaron">
          -74 230 663 rmoveto
          -26 callgsubr
          106 -137 rlineto
          228 -32 rmoveto
          -336 217 callgsubr
          hlineto
          endchar
        </CharString>
        <CharString name="Thorn">
          8 272 233 rmoveto
          -29 callsubr
          -78 218 78 -70 callsubr
          -106 113 rmoveto
          121 -115 -631 115 121 112 vlineto
          77 32 36 62 hvcurveto
          192 11 callgsubr
          endchar
        </CharString>
        <CharString name="U">
          14 272 631 -46 callgsubr
        </CharString>
        <CharString name="Uacute">
          14 373 800 23 callgsubr
          12 -32 -46 callgsubr
        </CharString>
        <CharString name="Ucircumflex">
          14 216 740 16 callgsubr
          108 -32 -46 callgsubr
        </CharString>
        <CharString name="Udieresis">
          14 376 767 68 callsubr
          100 -31 -46 callgsubr
        </CharString>
        <CharString name="Ugrave">
          14 263 663 90 callgsubr
          103 -32 -46 callgsubr
        </CharString>
        <CharString name="Uhungarumlaut">
          4 321 663 107 callgsubr
          91 -548 151 callsubr
          -53 -35 callgsubr
          516 -115 -532 -37 callgsubr
          75 callsubr
          532 -115 vlineto
          endchar
        </CharString>
        <CharString name="Umacron">
          14 369 741 368 callsubr
          -97 -31 -46 callgsubr
        </CharString>
        <CharString name="Uogonek">
          14 272 43 callgsubr
          -516 vlineto
          108 callsubr
          -53 -35 callgsubr
          516 -115 -532 -37 callgsubr
          31 -21 -7 hlineto
          64 callgsubr
          -84 hlineto
          385 callsubr
          94 14 -20 callsubr
          532 vlineto
          endchar
        </CharString>
        <CharString name="Uring">
          14 174 750 -13 callsubr
          92 -31 -46 callgsubr
        </CharString>
        <CharString name="V">
          -7 289 43 callgsubr
          -83 -510 -81 510 rlineto
          -119 hlineto
          125 -631 rlineto
          151 hlineto
          125 631 rlineto
          endchar
        </CharString>
        <CharString name="W">
          255 551 43 callgsubr
          -71 -512 -82 512 rlineto
          -121 hlineto
          -83 -512 -65 512 rlineto
          -119 hlineto
          111 -631 rlineto
          146 hlineto
          70 445 71 -445 rlineto
          146 hlineto
          111 631 rlineto
          endchar
        </CharString>
        <CharString name="X">
          -4 269 322 rmoveto
          128 309 rlineto
          -124 hlineto
          -67 -208 -67 208 rlineto
          -129 hlineto
          132 -309 -139 -322 rlineto
          123 hlineto
          80 221 79 -221 rlineto
          128 hlineto
          endchar
        </CharString>
        <CharString name="Y">
          -13 404 631 144 callgsubr
        </CharString>
        <CharString name="Yacute">
          -13 362 800 23 callgsubr
          155 -32 144 callgsubr
        </CharString>
        <CharString name="Ydieresis">
          -21 361 775 68 callsubr
          247 -39 144 callgsubr
        </CharString>
        <CharString name="Z">
          -63 345 631 277 callgsubr
        </CharString>
        <CharString name="Zacute">
          -63 344 800 23 callgsubr
          114 262 callsubr
        </CharString>
        <CharString name="Zcaron">
          -63 245 663 rmoveto
          -26 callgsubr
          106 -137 rlineto
          -105 -120 rmoveto
          136 callsubr
          88 -322 vlineto
          endchar
        </CharString>
        <CharString name="Zdotaccent">
          -63 249 768 364 callsubr
          96 262 callsubr
        </CharString>
        <CharString name="a">
          -26 177 88 rmoveto
          -60 callgsubr
        </CharString>
        <CharString name="aacute">
          -26 362 660 23 callgsubr
          -72 -435 -37 callsubr
          endchar
        </CharString>
        <CharString name="abreve">
          -26 177 88 -37 callsubr
          22 169 rmoveto
          73 callsubr
          102 hlineto
          76 32 36 63 hvcurveto
          38 vlineto
          endchar
        </CharString>
        <CharString name="acircumflex">
          -26 199 600 16 callgsubr
          30 -435 -37 callsubr
          endchar
        </CharString>
        <CharString name="acute">
          24 117 523 120 callgsubr
          endchar
        </CharString>
        <CharString name="adieresis">
          -26 156 646 rmoveto
          -116 -105 116 hlineto
          21 -453 -37 callsubr
          4 155 rmoveto
          -105 116 105 vlineto
          endchar
        </CharString>
        <CharString name="ae">
          189 182 370 callsubr
          55 vlineto
          89 36 rlineto
          -88 vlineto
          -22 -1 -9 -8 -21 hhcurveto
          215 317 rmoveto
          22 6 -6 -21 hvcurveto
          -90 -101 90 35 callgsubr
          176 -194 rmoveto
          10 7 171 11 callgsubr
          -73 hlineto
          321 callsubr
          -81 113 65 300 callsubr
          21 9 -8 -22 1 hvcurveto
          -86 vlineto
          -202 -83 rlineto
          -105 169 callsubr
          vlineto
          endchar
        </CharString>
        <CharString name="agrave">
          -26 271 523 90 callgsubr
          -435 vmoveto
          -60 callgsubr
        </CharString>
        <CharString name="amacron">
          -26 346 316 callgsubr
          -169 -464 rmoveto
          -60 callgsubr
        </CharString>
        <CharString name="ampersand">
          89 175 84 rmoveto
          -22 -7 32 callsubr
          67 vlineto
          28 9 10 19 13 vhcurveto
          21 13 139 -158 rlineto
          -158 437 rmoveto
          402 callsubr
          39 hlineto
          22 6 -5 -22 hvcurveto
          -76 vlineto
          -36 -18 -15 -38 -25 vhcurveto
          -3 -2 rlineto
          -22 25 -14 20 26 vvcurveto
          381 -473 rmoveto
          -82 95 rlineto
          4 12 2 13 14 vvcurveto
          137 -92 -75 vlineto
          -113 133 21 13 rlineto
          55 35 30 31 74 vvcurveto
          85 434 callgsubr
          -76 vhcurveto
          -103 162 callsubr
          -88 vlineto
          -46 30 -37 39 -47 vhcurveto
          -26 -18 rlineto
          -53 -32 -17 -23 -52 vvcurveto
          -90 -37 callgsubr
          224 hlineto
          13 12 1 2 11 hvcurveto
          34 -38 rlineto
          endchar
        </CharString>
        <CharString name="aogonek">
          223 callsubr
          79 -254 101 callgsubr
          585 -112 -48 hlineto
          -52 callgsubr
          37 320 callgsubr
        </CharString>
        <CharString name="apostrophemod">
          337 callgsubr
        </CharString>
        <CharString name="approxequal">
          92 336 364 rmoveto
          44 hlineto
          67 25 30 56 hvcurveto
          62 -104 -36 359 callgsubr
          -30 -57 hvcurveto
          -62 104 37 vlineto
          22 5 12 24 vhcurveto
          60 18 -71 85 hhcurveto
          -182 vmoveto
          44 hlineto
          67 25 31 56 hvcurveto
          62 -104 -37 359 callgsubr
          -29 -57 hvcurveto
          -62 104 37 vlineto
          22 5 11 24 vhcurveto
          60 18 -71 85 hhcurveto
          endchar
        </CharString>
        <CharString name="aring">
          -26 158 617 -13 callsubr
          13 -441 rmoveto
          -60 callgsubr
        </CharString>
        <CharString name="asciicircum">
          138 195 670 rmoveto
          -129 -364 rlineto
          118 hlineto
          85 263 86 -263 rlineto
          118 hlineto
          -129 364 rlineto
          endchar
        </CharString>
        <CharString name="asciitilde">
          161 372 211 rmoveto
          44 hlineto
          67 26 30 56 hvcurveto
          71 -104 -45 vlineto
          -23 -4 -11 -24 vhcurveto
          -60 -24 80 -84 hhcurveto
          -46 hlineto
          -66 -26 -30 -57 hvcurveto
          -71 104 46 vlineto
          22 5 12 25 vhcurveto
          60 22 -80 85 hhcurveto
          endchar
        </CharString>
        <CharString name="asterisk">
          -79 325 486 rmoveto
          -28 85 -28 -9 -26 -8 -20 -10 -16 -10 rlinecurve
          5 18 3 22 26 vvcurveto
          31 -89 -30 vlineto
          -27 4 -23 4 -18 vhcurveto
          -15 10 -20 11 -26 8 -29 9 rcurveline
          -28 -85 29 -9 26 -9 22 -3 18 -1 rlinecurve
          -14 -12 -15 -16 -16 -21 -19 -25 rcurveline
          73 -53 18 24 16 22 10 20 7 18 rlinecurve
          7 -17 10 -20 15 -21 19 -26 rcurveline
          72 53 -18 25 -16 22 -15 16 -15 11 rlinecurve
          18 1 22 4 25 8 rrcurveto
          endchar
        </CharString>
        <CharString name="at">
          324 237 337 rmoveto
          -162 vlineto
          -60 30 -34 67 vhcurveto
          24 hlineto
          39 27 17 37 6 hvcurveto
          -54 166 vlineto
          71 31 36 62 hvcurveto
          310 vlineto
          63 -30 36 -72 vhcurveto
          -428 hlineto
          -72 380 callgsubr
          -470 344 callgsubr
          72 vhcurveto
          356 85 -326 -35 callgsubr
          443 vlineto
          22 36 callsubr
          370 hlineto
          22 6 -6 -22 hvcurveto
          -289 vlineto
          -29 callsubr
          -45 272 -97 -44 hlineto
          29 -9 -24 15 -35 hhcurveto
          -24 hlineto
          -67 -30 -34 -60 hvcurveto
          103 -11 rmoveto
          -76 callsubr
          28 hlineto
          20 9 -8 -24 hvcurveto
          -128 vlineto
          -24 -9 -8 -20 vhcurveto
          -28 hlineto
          -21 -6 5 21 hvcurveto
          endchar
        </CharString>
        <CharString name="atilde">
          -26 131 553 rmoveto
          173 callsubr
          -17 callsubr
          vlineto
          46 -445 rmoveto
          -60 callgsubr
        </CharString>
        <CharString name="b">
          -26 245 339 callgsubr
          -30 hlineto
          -21 -10 9 24 hvcurveto
          249 vlineto
          25 10 9 21 vhcurveto
          30 -70 callsubr
          -19 115 rmoveto
          -36 -24 -14 -28 -10 hvcurveto
          219 -113 -669 112 45 vlineto
          -30 9 25 -15 37 hhcurveto
          30 hlineto
          72 31 36 63 hvcurveto
          294 259 callgsubr
        </CharString>
        <CharString name="backslash">
          -24 16 700 rmoveto
          283 -803 rlineto
          102 hlineto
          -283 803 rlineto
          endchar
        </CharString>
        <CharString name="bar">
          -203 53 769 rmoveto
          -909 107 909 vlineto
          endchar
        </CharString>
        <CharString name="braceleft">
          -125 217 674 rmoveto
          20 8 8 22 vhcurveto
          40 83 -81 hlineto
          -79 -25 -43 -59 hvcurveto
          -228 vlineto
          -70 -23 -31 -55 vhcurveto
          -14 -83 14 hlineto
          55 23 -32 -69 hvcurveto
          -229 vlineto
          -60 25 -43 79 vhcurveto
          81 84 -40 hlineto
          -22 -8 8 20 hvcurveto
          246 vlineto
          69 -27 42 -49 5 vhcurveto
          47 8 29 39 76 vvcurveto
          endchar
        </CharString>
        <CharString name="braceright">
          -125 77 435 rmoveto
          -76 30 -39 47 -8 vhcurveto
          -49 -5 -28 -42 -69 vvcurveto
          -246 vlineto
          -20 -8 -8 -22 vhcurveto
          -39 -84 81 hlineto
          78 25 43 60 hvcurveto
          229 vlineto
          69 23 32 56 vhcurveto
          14 83 -14 hlineto
          -56 -23 31 70 hvcurveto
          228 vlineto
          59 -25 43 -78 vhcurveto
          -81 -83 39 hlineto
          22 8 -8 -20 hvcurveto
          endchar
        </CharString>
        <CharString name="bracketleft">
          -107 266 697 rmoveto
          88 -213 -948 213 88 -97 772 vlineto
          endchar
        </CharString>
        <CharString name="bracketright">
          -107 247 785 rmoveto
          -213 -88 97 -772 -97 -88 213 hlineto
          endchar
        </CharString>
        <CharString name="breve">
          24 279 660 rmoveto
          73 callsubr
          102 hlineto
          76 32 36 63 hvcurveto
          38 vlineto
          endchar
        </CharString>
        <CharString name="brokenbar">
          -203 48 254 rmoveto
          -350 116 350 vlineto
          122 vmoveto
          349 -116 -349 vlineto
          endchar
        </CharString>
        <CharString name="bullet">
          -24 62 321 rmoveto
          -75 61 -61 75 75 61 61 75 75 -61 61 -75 -75 -61 -61 -75 vhcurveto
          endchar
        </CharString>
        <CharString name="c">
          -40 352 326 rmoveto
          66 11 callgsubr
          -98 hlineto
          -6 callsubr
          vlineto
          endchar
        </CharString>
        <CharString name="cacute">
          -40 353 660 23 callgsubr
          -95 -32 rmoveto
          -6 callsubr
          111 66 11 callgsubr
          endchar
        </CharString>
        <CharString name="caron">
          24 163 523 rmoveto
          117 hlineto
          -26 callgsubr
          endchar
        </CharString>
        <CharString name="ccaron">
          -40 251 523 rmoveto
          -26 callgsubr
          106 -137 rlineto
          11 -32 rmoveto
          -6 callsubr
          111 66 11 callgsubr
          endchar
        </CharString>
        <CharString name="ccedilla">
          -40 145 215 callsubr
          207 375 rmoveto
          66 11 callgsubr
          -98 hlineto
          -6 callsubr
          vlineto
          endchar
        </CharString>
        <CharString name="cedilla">
          24 204 215 callsubr
          endchar
        </CharString>
        <CharString name="cent">
          -40 352 326 rmoveto
          66 vlineto
          61 -30 35 -71 3 vhcurveto
          78 -109 -78 vlineto
          -75 -1 -31 -36 -62 vvcurveto
          -293 vlineto
          -62 31 -36 75 -1 vhcurveto
          -77 109 77 vlineto
          71 3 30 35 61 vvcurveto
          67 -111 -51 vlineto
          -29 callsubr
          -36 166 callgsubr
          36 302 callsubr
          vlineto
          endchar
        </CharString>
        <CharString name="circumflex">
          24 57 523 203 callsubr
        </CharString>
        <CharString name="colon">
          -230 34 344 rmoveto
          -197 122 197 vlineto
          endchar
        </CharString>
        <CharString name="comma">
          250 callsubr
          endchar
        </CharString>
        <CharString name="copyright">
          302 691 340 rmoveto
          183 -59 108 -170 vhcurveto
          -192 hlineto
          -171 -58 -108 -183 hvcurveto
          -54 vlineto
          -184 58 -102 171 vhcurveto
          192 hlineto
          170 59 102 184 hvcurveto
          -406 -209 rmoveto
          -110 -40 64 136 hvcurveto
          72 vlineto
          136 40 70 110 vhcurveto
          162 hlineto
          110 39 -70 -136 hvcurveto
          -72 vlineto
          -136 -39 -64 -110 vhcurveto
          -38 172 rmoveto
          -19 -5 -5 -20 vhcurveto
          -36 hlineto
          -20 -5 5 19 hvcurveto
          141 vlineto
          19 5 5 20 vhcurveto
          36 hlineto
          20 5 -5 -19 hvcurveto
          -28 90 43 vlineto
          52 -27 29 -61 vhcurveto
          -89 hlineto
          -62 -27 -29 -52 hvcurveto
          -171 vlineto
          -52 27 -30 62 vhcurveto
          89 hlineto
          61 27 30 52 hvcurveto
          43 -90 vlineto
          endchar
        </CharString>
        <CharString name="currency">
          96 239 182 rmoveto
          -37 -14 7 44 hvcurveto
          132 vlineto
          44 14 7 37 vhcurveto
          41 hlineto
          37 15 -7 -44 hvcurveto
          -132 vlineto
          -44 -15 -7 -37 vhcurveto
          150 189 rmoveto
          27 -4 24 -8 19 vhcurveto
          45 45 -70 70 -61 -60 rlineto
          1 -8 -9 0 -10 hhcurveto
          -90 hlineto
          -12 -10 -1 -1 -10 hvcurveto
          -62 61 -71 -70 51 -51 rlineto
          -7 -18 -3 -21 -25 vvcurveto
          -144 vlineto
          -21 2 -19 5 -16 vhcurveto
          -48 -48 71 -71 53 53 rlineto
          -3 12 14 -1 15 hhcurveto
          90 hlineto
          13 12 1 2 11 hvcurveto
          52 -52 70 71 -42 42 rlineto
          6 17 3 21 24 vvcurveto
          endchar
        </CharString>
        <CharString name="d">
          -26 177 370 callsubr
          262 218 callgsubr
          -25 hvcurveto
          -249 189 callgsubr
          31 581 rmoveto
          -219 vlineto
          220 callsubr
          vlineto
          endchar
        </CharString>
        <CharString name="dagger">
          -31 382 472 rmoveto
          386 callsubr
          -498 115 498 130 hlineto
          endchar
        </CharString>
        <CharString name="daggerdbl">
          -7 394 388 rmoveto
          84 386 callsubr
          -294 -130 -83 130 -159 115 159 130 83 -130 294 vlineto
          endchar
        </CharString>
        <CharString name="danda">
          -58 236 662 394 callgsubr
          endchar
        </CharString>
        <CharString name="dcaron">
          7 177 370 callsubr
          262 218 callgsubr
          -25 hvcurveto
          -249 189 callgsubr
          31 362 rmoveto
          220 callsubr
          -114 vlineto
          156 hmoveto
          438 callsubr
          endchar
        </CharString>
        <CharString name="dcroat">
          -21 182 125 callsubr
          192 523 rmoveto
          -47 58 -114 -58 -74 -66 74 -96 hlineto
          384 callsubr
          -293 347 callgsubr
          545 47 vlineto
          endchar
        </CharString>
        <CharString name="degree">
          -8 359 533 rmoveto
          62 -30 36 -76 vhcurveto
          -97 hlineto
          -77 -29 -36 -62 hvcurveto
          -104 vlineto
          -62 29 -36 77 vhcurveto
          97 hlineto
          76 30 36 62 hvcurveto
          -105 6 rmoveto
          -21 -7 -5 -22 vhcurveto
          -41 hlineto
          -22 -7 5 21 hvcurveto
          92 vlineto
          20 7 6 22 vhcurveto
          41 hlineto
          22 7 -6 -20 hvcurveto
          endchar
        </CharString>
        <CharString name="dieresis">
          24 62 541 172 callsubr
          endchar
        </CharString>
        <CharString name="divide">
          27 25 270 430 callgsubr
          143 152 rmoveto
          -95 111 95 vlineto
          -111 -297 rmoveto
          -96 111 96 vlineto
          endchar
        </CharString>
        <CharString name="dollar">
          -21 180 362 rmoveto
          -22 -7 32 callsubr
          127 35 callgsubr
          38 -70 callsubr
          -72 116 88 307 callsubr
          -76 vhcurveto
          79 -109 -79 -1 vlineto
          -77 380 callgsubr
          -155 vlineto
          -63 28 -37 75 vhcurveto
          81 -70 callsubr
          -135 vlineto
          -29 callsubr
          -38 -30 callgsubr
          71 -115 -87 vlineto
          -62 31 -36 76 -1 vhcurveto
          -79 109 79 1 vlineto
          -24 callsubr
          165 vlineto
          63 -30 35 -75 vhcurveto
          endchar
        </CharString>
        <CharString name="dotaccent">
          24 161 539 rmoveto
          122 105 -122 hlineto
          endchar
        </CharString>
        <CharString name="dotlessi">
          127 callsubr
          endchar
        </CharString>
        <CharString name="dottedcircle">
          240 139 517 rmoveto
          -26 18 -19 26 26 18 19 26 25 -18 19 -26 -26 -18 -19 -25 vhcurveto
          -82 -110 rmoveto
          -25 20 -19 26 24 20 19 25 25 -20 19 -24 -26 -20 -19 -25 vhcurveto
          -13 -126 rmoveto
          -25 19 -18 25 26 18 18 437 callgsubr
          52 -116 rmoveto
          -26 18 -18 26 25 19 18 26 25 -19 19 -25 -26 -18 -19 -25 vhcurveto
          101 -75 rmoveto
          -26 19 -20 26 25 19 20 26 24 -19 20 -25 -26 -19 -20 -24 vhcurveto
          127 -16 rmoveto
          -26 18 -18 26 26 19 18 26 26 -19 18 -26 -26 -18 -18 -26 vhcurveto
          121 53 rmoveto
          -26 19 -18 25 25 20 18 26 25 -20 19 -25 -25 -19 -19 -25 vhcurveto
          73 98 rmoveto
          -25 19 -19 26 24 19 19 25 26 -19 19 -24 -26 -19 -19 -26 vhcurveto
          10 134 rmoveto
          -26 18 -18 26 25 19 18 26 26 -19 18 -25 -26 -18 -18 -26 vhcurveto
          -50 118 rmoveto
          -25 19 -19 25 26 18 19 437 callgsubr
          -95 68 rmoveto
          -24 19 -20 26 25 18 20 24 26 -18 19 -25 -26 -19 -19 -26 vhcurveto
          -126 15 rmoveto
          -26 18 -18 26 26 18 18 26 26 -18 18 -26 -26 -18 -18 -26 vhcurveto
          endchar
        </CharString>
        <CharString name="doubledanda">
          140 236 662 394 callgsubr
          198 693 394 callgsubr
          endchar
        </CharString>
        <CharString name="dvA">
          181 621 43 callgsubr
          -181 -94 callgsubr
          68 vlineto
          endchar
        </CharString>
        <CharString name="dvAA">
          392 831 43 callgsubr
          -391 -94 callgsubr
          97 -548 211 callsubr
        </CharString>
        <CharString name="dvAI">
          16 456 43 callgsubr
          -69 160 callgsubr
          -292 31 callgsubr
        </CharString>
        <CharString name="dvAU">
          392 831 43 callgsubr
          -70 hlineto
          -31 195 286 callsubr
          -139 hlineto
          130 -117 47 -42 28 -21 23 -15 rlinecurve
          -201 -94 callgsubr
          97 -548 211 callsubr
        </CharString>
        <CharString name="dvAbbreviationsign">
          -48 56 311 rmoveto
          -89 51 -47 79 78 53 47 89 89 -53 47 -78 -79 -51 -47 -89 vhcurveto
          86 hmoveto
          45 14 18 30 29 15 -18 -45 -45 -16 -18 -28 -29 -15 18 45 vhcurveto
          endchar
        </CharString>
        <CharString name="dvAcandra">
          139 621 43 callgsubr
          -181 -94 callgsubr
          68 vlineto
          -30 285 97 callgsubr
        </CharString>
        <CharString name="dvAnusvara">
          -420 -152 832 328 callgsubr
        </CharString>
        <CharString name="dvAnusvara.amI">
          -420 24 762 400 callgsubr
        </CharString>
        <CharString name="dvAvagraha">
          -25 330 552 rmoveto
          79 -174 vlineto
          -77 -28 -30 -62 hvcurveto
          -144 389 callsubr
          -172 212 callgsubr
          -34 hlineto
          -18 113 callsubr
          -61 28 callsubr
          101 hlineto
          78 14 callsubr
          199 410 callsubr
          -57 hlineto
          -21 -6 5 21 hvcurveto
          118 -92 callsubr
          endchar
        </CharString>
        <CharString name="dvB">
          -161 338 43 callgsubr
          -358 -83 358 hlineto
          -195 -470 rmoveto
          195 74 hlineto
          0 -56 103 -29 45 vhcurveto
          -61 252 callgsubr
          35 -30 67 vhcurveto
          12 111 309 callsubr
          endchar
        </CharString>
        <CharString name="dvBA">
          49 182 161 147 callgsubr
          206 470 rmoveto
          -509 -83 327 323 callsubr
          -29 45 vhcurveto
          -61 101 rlineto
          74 78 -119 hlineto
          -78 -28 -29 -62 hvcurveto
          -210 287 callsubr
        </CharString>
        <CharString name="dvBH">
          1 237 callgsubr
          120 -92 callgsubr
          63 hlineto
          278 83 rmoveto
          -164 119 hlineto
          -58 callgsubr
          -106 183 callsubr
          -149 18 callgsubr
          157 164 vlineto
          endchar
        </CharString>
        <CharString name="dvBHA">
          200 247 189 50 callsubr
        </CharString>
        <CharString name="dvBH_LA">
          585 237 callgsubr
          121 -92 callgsubr
          63 hlineto
          776 295 rmoveto
          -607 -83 429 -69 160 callsubr
          -53 -33 -18 -42 -11 hvcurveto
          -93 118 hlineto
          -58 callgsubr
          -105 183 callsubr
          -150 18 callgsubr
          158 88 -245 vlineto
          432 callgsubr
          91 84 -56 -54 callgsubr
          258 -50 callsubr
          4 -7 -21 hvcurveto
          -176 114 176 vlineto
          21 4 7 23 vhcurveto
          56 -397 -55 callsubr
          64 hlineto
          endchar
        </CharString>
        <CharString name="dvBH_NA">
          565 634 189 -99 callgsubr
          -387 -208 48 callsubr
          111 vlineto
          22 -79 callsubr
          63 hlineto
          758 304 rmoveto
          -565 -83 383 -69 -277 hlineto
          -69 -30 -22 -48 -6 hvcurveto
          -80 128 hlineto
          -58 callgsubr
          -115 183 callsubr
          -140 18 callgsubr
          149 79 -149 272 callgsubr
          78 hlineto
          82 43 callsubr
        </CharString>
        <CharString name="dvBH_R">
          58 284 -63 rmoveto
          214 227 rlineto
          122 vlineto
          -332 -349 rlineto
          81 313 48 callsubr
          62 -92 callgsubr
          63 hlineto
          114 83 rmoveto
          116 vlineto
          -58 callgsubr
          -103 183 callsubr
          -91 18 callgsubr
          99 137 83 vlineto
          endchar
        </CharString>
        <CharString name="dvBH_RA">
          200 247 250 48 callsubr
          62 -92 callgsubr
          63 hlineto
          393 293 rmoveto
          -182 -210 -97 116 hlineto
          -58 callgsubr
          -103 183 callsubr
          -91 18 callgsubr
          99 97 -93 251 callgsubr
          -91 callsubr
        </CharString>
        <CharString name="dvBH_R_YA">
          517 775 -57 callgsubr
          147 426 callsubr
          82 270 callgsubr
          90 hlineto
          -528 -298 48 callsubr
          60 -92 callgsubr
          63 hlineto
          710 295 rmoveto
          -538 -83 126 152 callsubr
          -70 -4 callsubr
          -197 118 hlineto
          -58 callgsubr
          -105 183 callsubr
          -89 18 callgsubr
          97 97 -92 vlineto
          -292 -307 rlineto
          118 hlineto
          183 190 rlineto
          -34 16 34 -15 56 hhcurveto
          163 -64 callsubr
        </CharString>
        <CharString name="dvBH_VA">
          396 237 callgsubr
          121 -92 callgsubr
          63 hlineto
          589 295 rmoveto
          -420 -83 239 261 callgsubr
          -63 -31 -19 -41 -9 hvcurveto
          -91 118 hlineto
          -58 callgsubr
          -105 183 callsubr
          -150 18 callgsubr
          158 88 -158 vlineto
          196 callgsubr
        </CharString>
        <CharString name="dvBH_YA">
          499 757 195 165 callsubr
          141 95 callgsubr
          88 101 callsubr
          -510 -359 48 callsubr
          115 -92 callgsubr
          63 hlineto
          692 301 rmoveto
          -499 397 callsubr
          -76 -49 callgsubr
          -179 124 hlineto
          -58 callgsubr
          -111 -98 246 callgsubr
          -144 18 callgsubr
          152 79 -152 vlineto
          -75 callgsubr
          69 vlineto
          endchar
        </CharString>
        <CharString name="dvB_BA">
          318 451 161 2 callsubr
          72 -112 rcurveline
          -366 hmoveto
          1 callgsubr
          73 -112 rcurveline
          472 470 rmoveto
          -778 -83 596 -223 hlineto
          -89 6 -32 -39 callsubr
          -116 vlineto
          -41 6 -27 -39 callsubr
          393 callsubr
          132 hlineto
          30 18 7 15 11 hvcurveto
          -15 17 25 -7 33 hhcurveto
          149 callsubr
          -85 -14 callgsubr
        </CharString>
        <CharString name="dvB_BHA">
          467 265 callsubr
          245 -359 rmoveto
          -23 -7 -5 -21 vhcurveto
          -34 150 callsubr
          120 -92 callgsubr
          63 hlineto
          -329 -174 2 callsubr
          73 -112 rcurveline
          621 470 rmoveto
          -182 -213 -97 119 341 callsubr
          -98 hlineto
          -77 -29 -34 -62 hvcurveto
          -56 114 43 -92 callsubr
          28 -15 callsubr
          -106 183 callsubr
          -55 vlineto
          -41 6 -27 -39 callsubr
          393 callsubr
          132 hlineto
          30 19 7 16 11 240 callgsubr
          88 152 callgsubr
          157 97 -335 -91 callsubr
        </CharString>
        <CharString name="dvB_BH_RA">
          464 265 callsubr
          242 -298 rmoveto
          -23 -7 -5 -21 vhcurveto
          -34 -83 callsubr
          62 -92 callsubr
          63 hlineto
          -356 29 rmoveto
          11 -14 20 -37 24 401 callsubr
          -101 -90 callsubr
          749 442 rmoveto
          -181 -210 -98 116 44 callsubr
          -103 183 callsubr
          -58 vlineto
          -41 6 -27 141 callgsubr
          -29 45 vhcurveto
          -61 252 callgsubr
          35 -30 67 vhcurveto
          160 hlineto
          48 30 23 39 14 hvcurveto
          -1 8 9 0 10 hhcurveto
          88 152 callgsubr
          99 98 -93 176 callsubr
        </CharString>
        <CharString name="dvB_DA">
          243 178 161 361 callgsubr
          73 -112 rcurveline
          336 236 rmoveto
          151 68 83 -703 -83 521 -69 -93 vlineto
          273 callsubr
          -63 407 callsubr
          -61 101 rlineto
          75 269 callgsubr
          393 callsubr
          132 hlineto
          30 19 8 16 10 hvcurveto
          -16 19 29 -8 40 hhcurveto
          258 callsubr
          -90 114 277 -114 369 callsubr
          -32 hlineto
          -22 84 callsubr
          endchar
        </CharString>
        <CharString name="dvB_DHA">
          343 265 callsubr
          -84 -387 2 callsubr
          73 -112 rcurveline
          500 470 rmoveto
          -182 -436 hlineto
          -3 callsubr
          -20 vlineto
          -41 6 -27 -39 callsubr
          393 callsubr
          132 hlineto
          30 19 8 16 11 hvcurveto
          -16 19 28 -8 40 hhcurveto
          140 91 callsubr
          -91 callsubr
        </CharString>
        <CharString name="dvB_DH_VA">
          551 265 callsubr
          -84 -387 2 callsubr
          73 -112 rcurveline
          705 470 rmoveto
          -397 -83 215 264 callsubr
          181 123 callgsubr
          -48 callgsubr
          -193 vlineto
          -3 callsubr
          -20 vlineto
          -41 6 -27 -39 callsubr
          393 callsubr
          132 hlineto
          30 19 8 16 11 hvcurveto
          -16 19 28 -8 40 hhcurveto
          147 hlineto
          30 18 7 15 11 hvcurveto
          -15 17 25 -7 33 282 callsubr
          68 vlineto
          endchar
        </CharString>
        <CharString name="dvB_JA">
          432 178 161 279 callgsubr
          620 470 rmoveto
          -895 -83 713 -69 -193 -290 87 callgsubr
          219 76 callgsubr
          vlineto
          endchar
        </CharString>
        <CharString name="dvB_JHA">
          459 729 316 rmoveto
          -270 hlineto
          -21 -6 5 21 hvcurveto
          33 -92 callsubr
          166 147 104 hlineto
          -547 -422 248 callgsubr
          204 vlineto
          5 -16 14 -33 29 -54 66 -125 rcurveline
          -3 -3 -4 -1 -8 hhcurveto
          657 505 rmoveto
          -931 -83 532 -69 -88 hlineto
          131 callsubr
          -59 vlineto
          -62 29 -30 77 vhcurveto
          73 -15 callsubr
          -63 -49 callgsubr
          -64 85 -113 -66 hlineto
          -132 260 rlineto
          69 78 -114 317 callgsubr
          -235 vlineto
          -71 34 -29 68 vhcurveto
          132 hlineto
          20 15 5 9 10 hvcurveto
          -85 113 71 99 vlineto
          77 29 149 callgsubr
          93 -237 290 callsubr
        </CharString>
        <CharString name="dvB_J_YA">
          745 1010 187 callsubr
          149 95 callgsubr
          80 101 callsubr
          -832 -387 279 callgsubr
          936 470 rmoveto
          -1211 -83 799 152 callsubr
          -68 342 callsubr
          -292 -232 87 callgsubr
          160 80 -160 vlineto
          -75 callgsubr
          68 vlineto
          endchar
        </CharString>
        <CharString name="dvB_JxA">
          443 429 -105 9 callsubr
          -244 161 2 callsubr
          73 -112 rcurveline
          597 470 rmoveto
          -903 -83 721 179 callgsubr
          -21 375 callsubr
          -115 -184 vlineto
          -72 6 -19 -39 callsubr
          393 callsubr
          135 hlineto
          28 19 6 14 11 hvcurveto
          -14 17 24 -6 32 hhcurveto
          95 190 callgsubr
          219 79 66 callsubr
        </CharString>
        <CharString name="dvB_LA">
          444 185 161 2 callsubr
          72 -112 rcurveline
          599 470 rmoveto
          -904 -83 726 -69 356 callsubr
          -102 hlineto
          -68 -34 -29 -71 hvcurveto
          -54 vlineto
          -89 6 -32 -39 callsubr
          -210 vlineto
          -70 34 -30 68 440 callsubr
          -57 2 29 -28 75 hhcurveto
          91 84 -56 hlineto
          -21 -7 5 22 hvcurveto
          258 vlineto
          23 7 5 21 vhcurveto
          30 hlineto
          23 55 callsubr
        </CharString>
        <CharString name="dvB_L_YA">
          765 1023 214 callgsubr
          -838 -387 2 callsubr
          72 -112 rcurveline
          920 470 rmoveto
          -1225 -83 812 152 callsubr
          -62 -49 callgsubr
          -187 hlineto
          -33 -15 -15 -27 -3 hvcurveto
          -3 hlineto
          27 -3 -15 15 -33 hhcurveto
          -102 hlineto
          -68 -34 -30 -70 hvcurveto
          -15 vlineto
          -69 6 -39 -39 callsubr
          -210 vlineto
          -70 34 -30 68 440 callsubr
          -57 2 29 -28 75 hhcurveto
          91 84 -56 hlineto
          -21 -7 5 22 hvcurveto
          205 -54 callsubr
          30 hlineto
          23 380 callsubr
          -159 113 159 275 callgsubr
          23 vhcurveto
          56 -166 hlineto
          -75 callgsubr
          69 vlineto
          endchar
        </CharString>
        <CharString name="dvB_NA">
          435 504 189 111 callgsubr
          -319 -236 2 callsubr
          73 -112 rcurveline
          589 470 rmoveto
          -895 -83 713 364 callgsubr
          -116 vlineto
          -41 6 -27 -39 callsubr
          393 callsubr
          132 hlineto
          30 18 7 16 11 hvcurveto
          -16 19 29 -7 40 hhcurveto
          78 hlineto
          82 43 callsubr
        </CharString>
        <CharString name="dvB_R">
          -109 -20 43 callgsubr
          -83 349 83 vlineto
          -174 -442 309 callsubr
          -114 199 rmoveto
          182 callgsubr
          67 hlineto
          -97 -132 rlineto
          120 hlineto
          96 134 rlineto
          83 vlineto
          -14 14 -33 78 -29 45 -61 101 rcurveline
          238 callsubr
          endchar
        </CharString>
        <CharString name="dvB_RA">
          49 182 178 287 callgsubr
          229 453 rmoveto
          -509 -83 327 -208 hlineto
          -89 6 -32 0 vhcurveto
          -60 90 -61 92 265 callgsubr
          -193 254 callsubr
        </CharString>
        <CharString name="dvB_SA">
          443 701 352 rmoveto
          -95 hlineto
          -38 callgsubr
          87 hlineto
          -516 -387 2 callsubr
          72 -112 rcurveline
          598 470 rmoveto
          -903 -83 495 hlineto
          118 callsubr
          -132 hlineto
          -89 6 -32 -39 callsubr
          -210 vlineto
          -70 34 -30 68 440 callsubr
          -57 2 29 -28 75 hhcurveto
          98 hlineto
          77 14 callsubr
          109 -113 -95 vlineto
          -22 -6 -5 -19 vhcurveto
          -30 hlineto
          -21 -7 5 22 hvcurveto
          165 278 -270 -14 callgsubr
        </CharString>
        <CharString name="dvB_SHA">
          447 275 43 callgsubr
          -295 -83 295 hlineto
          -84 -387 rmoveto
          -22 348 callsubr
          131 473 rmoveto
          -77 -28 -34 -62 hvcurveto
          -82 113 69 304 callgsubr
          53 -114 -63 hlineto
          -89 6 -32 141 callgsubr
          -29 45 vhcurveto
          -61 101 rlineto
          75 78 -120 hlineto
          273 callsubr
          137 callsubr
          34 -30 67 vhcurveto
          131 hlineto
          14 11 2 4 8 hvcurveto
          -56 2 30 -28 74 hhcurveto
          27 callsubr
          100 -113 -86 113 callgsubr
          148 74 vlineto
          85 38 97 callsubr
        </CharString>
        <CharString name="dvB_TA">
          267 185 161 2 callsubr
          72 -112 rcurveline
          428 470 rmoveto
          -733 -83 551 -69 -115 -96 callgsubr
          -63 vlineto
          -89 6 -32 -39 callsubr
          -210 vlineto
          -70 34 -30 68 440 callsubr
          -57 2 29 -28 75 hhcurveto
          51 callsubr
        </CharString>
        <CharString name="dvB_VA">
          257 185 161 2 callsubr
          73 -112 rcurveline
          411 470 rmoveto
          -717 -83 535 164 callsubr
          -48 callgsubr
          -93 vlineto
          -72 6 -19 -39 callsubr
          393 callsubr
          135 hlineto
          28 19 6 14 11 hvcurveto
          -14 17 24 -6 32 282 callsubr
          68 vlineto
          endchar
        </CharString>
        <CharString name="dvB_YA">
          369 627 207 callsubr
          -442 -387 2 callsubr
          73 -112 rcurveline
          523 470 rmoveto
          -829 -83 416 hlineto
          37 -10 callsubr
          -110 hlineto
          -41 6 -27 -39 callsubr
          393 callsubr
          132 hlineto
          30 19 7 16 11 240 callgsubr
          168 callsubr
        </CharString>
        <CharString name="dvC">
          -195 171 369 rmoveto
          -56 callgsubr
          33 82 -233 171 callsubr
          169 83 -130 -90 callsubr
          -192 442 rmoveto
          -83 349 83 vlineto
          endchar
        </CharString>
        <CharString name="dvCA">
          16 456 631 104 callsubr
        </CharString>
        <CharString name="dvCH">
          169 609 43 callgsubr
          -629 -83 73 hlineto
          39 callsubr
          268 hlineto
          79 37 -31 callgsubr
          288 vlineto
          67 -37 24 -71 vhcurveto
          -62 hlineto
          -71 -36 -24 -67 hvcurveto
          443 callsubr
          36 -25 62 vhcurveto
          38 74 -16 hlineto
          -21 -6 5 21 hvcurveto
          92 -78 callgsubr
          406 hlineto
          endchar
        </CharString>
        <CharString name="dvCHA">
          169 354 478 rmoveto
          -57 -4 -29 -26 -60 vvcurveto
          443 callsubr
          36 -25 62 vhcurveto
          38 74 -16 hlineto
          -21 -6 5 21 hvcurveto
          92 -78 callgsubr
          151 hlineto
          255 hmoveto
          83 -629 -83 73 vlineto
          39 callsubr
          268 322 callsubr
        </CharString>
        <CharString name="dvCH_RA">
          169 354 478 rmoveto
          -57 -4 -29 -26 -60 vvcurveto
          443 callsubr
          36 -25 62 vhcurveto
          38 74 -16 hlineto
          -21 -6 5 21 hvcurveto
          92 -78 callgsubr
          151 hlineto
          255 hmoveto
          83 -629 -83 73 vlineto
          39 callsubr
          60 hlineto
          146 callsubr
          49 322 callsubr
        </CharString>
        <CharString name="dvCH_R_YA">
          -12 callgsubr
          58 hlineto
          146 callsubr
          51 133 callgsubr
        </CharString>
        <CharString name="dvCH_YA">
          -12 callgsubr
          268 133 callgsubr
        </CharString>
        <CharString name="dvC_CA">
          234 674 43 callgsubr
          -695 -83 514 247 callsubr
          -22 vhcurveto
          -46 381 callsubr
          32 82 -199 -82 38 326 callsubr
          -164 vlineto
          -25 -52 callsubr
          -44 381 callsubr
          8 82 -209 -82 72 hlineto
          -8 -8 -5 -13 -18 174 callsubr
          84 hlineto
          29 19 8 15 12 hvcurveto
          -16 17 25 -7 33 hhcurveto
          73 52 callgsubr
        </CharString>
        <CharString name="dvC_CHA">
          399 584 478 rmoveto
          -56 -5 -30 -25 -60 vvcurveto
          443 callsubr
          37 -25 61 vhcurveto
          39 74 -17 388 callgsubr
          19 -15 callsubr
          -267 vlineto
          -23 -6 -5 -21 vhcurveto
          -220 -90 callsubr
          131 -68 callsubr
          35 82 167 callgsubr
          135 vlineto
          30 8 3 41 -2 vhcurveto
          -5 1 rlineto
          150 hlineto
          255 hmoveto
          83 -859 -83 303 220 callgsubr
          -6 5 23 hvcurveto
          180 -68 callsubr
          26 82 -226 171 callsubr
          75 hlineto
          18 14 3 5 11 hvcurveto
          -60 4 37 -26 73 hhcurveto
          269 hlineto
          78 37 -31 callgsubr
          288 vlineto
          60 -29 25 -56 5 vhcurveto
          70 vlineto
          endchar
        </CharString>
        <CharString name="dvC_CH_VA">
          395 580 478 rmoveto
          -57 -4 -29 -26 -60 vvcurveto
          443 callsubr
          36 -25 62 vhcurveto
          38 74 -16 388 callgsubr
          18 45 callgsubr
          -267 vlineto
          -23 -7 -5 -21 vhcurveto
          -219 hlineto
          131 callgsubr
          131 vlineto
          23 6 5 22 vhcurveto
          35 82 -35 hlineto
          131 callgsubr
          135 vlineto
          30 8 3 41 -2 vhcurveto
          -5 1 rlineto
          151 hlineto
          -96 -647 rmoveto
          -19 -7 419 callsubr
          99 -71 hlineto
          -22 -8 -6 -19 vhcurveto
          278 647 rmoveto
          83 -855 -83 299 220 callgsubr
          -7 85 callsubr
          26 82 -225 -82 71 hlineto
          -8 -8 -5 -12 -19 vvcurveto
          404 callgsubr
          34 -30 68 vhcurveto
          75 hlineto
          18 14 3 5 11 hvcurveto
          4 -57 33 -26 65 -3 rrcurveto
          -5 -6 -3 -10 -13 vvcurveto
          -57 vlineto
          -62 32 -28 62 vhcurveto
          84 hlineto
          19 12 259 callsubr
          -84 91 249 vlineto
          64 5 31 30 64 vvcurveto
          288 vlineto
          59 -28 291 callgsubr
        </CharString>
        <CharString name="dvC_MA">
          433 692 432 rmoveto
          -98 116 98 hlineto
          -212 -359 rmoveto
          -23 -7 333 callsubr
          71 hlineto
          393 282 rmoveto
          -893 -83 500 -116 -98 231 callgsubr
          -147 vlineto
          72 callsubr
          33 21 10 18 10 hvcurveto
          -19 18 30 -9 45 hhcurveto
          88 hlineto
          82 33 314 callgsubr
          68 vlineto
          endchar
        </CharString>
        <CharString name="dvC_NA">
          401 470 189 rmoveto
          -23 -7 -5 -21 58 callsubr
          53 hlineto
          371 234 rmoveto
          -861 -83 680 -69 -278 -96 callgsubr
          -194 vlineto
          72 callsubr
          33 21 10 18 10 hvcurveto
          -19 18 30 -9 45 311 callgsubr
        </CharString>
        <CharString name="dvC_R">
          -151 171 369 rmoveto
          213 callsubr
          118 188 rlineto
          52 -91 vlineto
          -91 callgsubr
          -192 417 rmoveto
          -83 310 83 vlineto
          endchar
        </CharString>
        <CharString name="dvC_RA">
          19 456 43 callgsubr
          -477 -83 295 -332 hlineto
          431 callsubr
          -47 -90 callsubr
          155 vlineto
          213 callsubr
          103 164 rlineto
          -110 -14 callgsubr
        </CharString>
        <CharString name="dvC_YA">
          335 593 82 callsubr
          -795 -83 383 62 callsubr
          -188 hlineto
          72 callsubr
          34 20 10 19 10 hvcurveto
          -20 19 31 -9 43 hhcurveto
          117 callsubr
        </CharString>
        <CharString name="dvCandrabindu">
          -420 -286 833 rmoveto
          -66 vlineto
          -59 32 -29 79 vhcurveto
          143 hlineto
          79 402 callgsubr
          -98 -54 vlineto
          -23 -6 -6 -23 vhcurveto
          -111 hlineto
          -23 -6 6 23 hvcurveto
          54 vlineto
          38 53 rmoveto
          -95 92 95 vlineto
          endchar
        </CharString>
        <CharString name="dvD">
          0 245 hmoveto
          113 383 callgsubr
          -87 hlineto
          66 callgsubr
          170 217 callsubr
          -96 callgsubr
          -210 77 callsubr
          47 hlineto
          20 157 callgsubr
          106 -151 221 callgsubr
        </CharString>
        <CharString name="dvDA">
          -17 354 397 rmoveto
          151 69 83 -449 -83 267 -69 -93 vlineto
          -78 -28 -29 -62 hvcurveto
          -210 29 callgsubr
        </CharString>
        <CharString name="dvDA_mvR">
          235 callgsubr
          47 hlineto
          20 157 callgsubr
          -90 -6 vlineto
          -77 -27 -71 callsubr
          -66 vlineto
          -61 28 callsubr
          167 83 -132 hlineto
          -22 -6 5 21 hvcurveto
          35 163 callsubr
          82 355 -113 -87 hlineto
          66 callgsubr
          endchar
        </CharString>
        <CharString name="dvDD">
          -17 138 -61 63 callgsubr
          -273 692 rmoveto
          -83 243 -69 -69 vlineto
          -84 callgsubr
          147 147 87 83 hlineto
          endchar
        </CharString>
        <CharString name="dvDDA">
          -17 336 430 callsubr
          -443 -83 243 -69 -69 vlineto
          -84 callgsubr
          endchar
        </CharString>
        <CharString name="dvDDH">
          19 156 -61 63 callgsubr
          84 458 rmoveto
          151 104 83 -479 -83 262 -69 -88 vlineto
          -46 callsubr
          endchar
        </CharString>
        <CharString name="dvDDHA">
          19 355 274 callsubr
          104 83 -479 -83 262 -69 -88 vlineto
          -46 callsubr
          endchar
        </CharString>
        <CharString name="dvDDH_DDHA">
          19 355 274 callsubr
          104 83 -479 -83 262 -69 -88 vlineto
          131 callsubr
          -215 vlineto
          -36 16 -16 376 callgsubr
          -3 -16 -16 -33 vvcurveto
          -170 77 callsubr
          127 190 callgsubr
          37 vlineto
          71 -32 30 -83 vhcurveto
          -83 -83 56 hlineto
          22 433 callsubr
          -16 412 callsubr
          -73 -83 callsubr
          169 -92 callsubr
          101 190 callgsubr
          40 293 callgsubr
          -83 -83 56 hlineto
          22 433 callsubr
          -18 412 callsubr
          -73 -83 callsubr
          160 -54 callsubr
          endchar
        </CharString>
        <CharString name="dvDDH_R">
          19 158 -160 63 callgsubr
          82 557 61 callsubr
        </CharString>
        <CharString name="dvDDH_RA">
          19 355 397 61 callsubr
        </CharString>
        <CharString name="dvDDH_YA">
          515 773 357 callgsubr
          58 426 callsubr
          46 vlineto
          62 -26 34 -77 vhcurveto
          -235 72 418 hlineto
          184 callsubr
          -975 -83 262 -69 -88 hlineto
          -46 callsubr
          366 153 callgsubr
          -22 hvcurveto
          -31 425 callsubr
          -144 288 callgsubr
        </CharString>
        <CharString name="dvDDHxA">
          19 175 -159 9 callsubr
          180 451 rmoveto
          151 104 83 -479 -83 262 -69 -88 vlineto
          -46 callsubr
          endchar
        </CharString>
        <CharString name="dvDD_DDA">
          93 callsubr
          -33 vlineto
          -53 25 -29 75 vhcurveto
          114 hlineto
          21 6 -6 -21 hvcurveto
          -23 -49 callgsubr
          -75 hlineto
          -19 -6 5 21 hvcurveto
          11 -114 -24 vlineto
          -62 29 -30 77 vhcurveto
          143 hlineto
          77 29 30 62 hvcurveto
          50 vlineto
          61 -29 30 -77 vhcurveto
          -108 hlineto
          -21 -6 5 21 hvcurveto
          20 205 callsubr
        </CharString>
        <CharString name="dvDD_DDHA">
          93 callsubr
          -170 374 callsubr
          126 190 callgsubr
          40 293 callgsubr
          -82 -82 55 hlineto
          22 433 callsubr
          -19 412 callsubr
          -73 -83 callsubr
          168 205 callsubr
        </CharString>
        <CharString name="dvDD_R">
          -17 138 -160 63 callgsubr
          -273 791 rmoveto
          54 callsubr
          147 147 87 83 hlineto
          endchar
        </CharString>
        <CharString name="dvDD_RA">
          -17 336 430 callsubr
          -443 54 callsubr
          endchar
        </CharString>
        <CharString name="dvDD_VA">
          1 268 18 rmoveto
          312 callgsubr
          40 -68 callsubr
          55 hlineto
          14 11 1 3 10 hvcurveto
          94 312 rmoveto
          147 79 83 -461 -83 269 -69 -96 vlineto
          131 callsubr
          -41 vlineto
          -62 29 -29 77 vhcurveto
          87 153 callgsubr
          -19 hvcurveto
          -46 vlineto
          -18 -7 -5 -21 vhcurveto
          -64 hlineto
          -19 -6 5 21 hvcurveto
          23 -113 -55 vlineto
          -33 15 301 callgsubr
          -15 -15 -32 vvcurveto
          -50 vlineto
          -58 27 -32 78 vhcurveto
          86 hlineto
          19 12 3 32 callgsubr
          -84 113 403 vlineto
          61 -28 30 -78 vhcurveto
          -87 hlineto
          -21 -6 5 18 hvcurveto
          18 -92 callsubr
          endchar
        </CharString>
        <CharString name="dvDD_YA">
          473 731 190 165 callsubr
          59 95 callgsubr
          46 341 callgsubr
          -211 67 395 hlineto
          184 callsubr
          -933 -83 243 -69 -69 hlineto
          -84 callgsubr
          325 -15 callsubr
          -32 -49 callgsubr
          -100 -143 hlineto
          -71 37 -29 78 vhcurveto
          162 hlineto
          19 157 callgsubr
          -86 113 vlineto
          -1 548 rlineto
          70 hlineto
          endchar
        </CharString>
        <CharString name="dvDDxA">
          -17 147 -164 9 callsubr
          189 460 rmoveto
          147 87 83 -443 -83 243 -69 -69 vlineto
          -84 callgsubr
          endchar
        </CharString>
        <CharString name="dvDH">
          -51 176 414 rmoveto
          -57 callsubr
          -148 vlineto
          -33 16 -15 26 -3 vhcurveto
          25 callsubr
          315 83 -276 -34 callsubr
          endchar
        </CharString>
        <CharString name="dvDHA">
          95 538 43 callgsubr
          376 callsubr
          -353 -73 callgsubr
          153 110 callgsubr
        </CharString>
        <CharString name="dvDH_MA">
          526 784 415 rmoveto
          -110 133 110 hlineto
          -223 -359 rmoveto
          -23 -7 -5 -21 vhcurveto
          -43 -83 callsubr
          117 163 callsubr
          71 hlineto
          405 299 rmoveto
          -609 -83 204 -133 -99 hlineto
          273 callsubr
          -129 -73 callgsubr
          174 229 callgsubr
          302 callgsubr
          154 110 -332 -14 callgsubr
        </CharString>
        <CharString name="dvDH_NA">
          482 551 165 callgsubr
          371 234 rmoveto
          -566 hlineto
          1 -83 rlineto
          383 -69 -278 hlineto
          273 callsubr
          -193 -73 callgsubr
          174 229 callgsubr
          77 322 callgsubr
        </CharString>
        <CharString name="dvDH_N_YA">
          805 1063 195 165 callsubr
          162 367 callsubr
          67 270 callgsubr
          90 hlineto
          -512 -359 rmoveto
          -23 -7 -5 -22 332 callgsubr
          694 280 rmoveto
          -888 -83 476 hlineto
          36 4 -6 -27 hvcurveto
          -55 -49 callgsubr
          -384 hlineto
          -77 -28 -30 -62 hvcurveto
          -147 -73 callgsubr
          174 229 callgsubr
          77 190 callgsubr
          173 82 -173 vlineto
          -70 37 -30 78 vhcurveto
          117 callsubr
        </CharString>
        <CharString name="dvDH_R">
          -78 62 306 rmoveto
          -111 vlineto
          -62 30 -29 63 vhcurveto
          52 hlineto
          42 22 -117 -180 303 callsubr
          119 188 rlineto
          52 -169 vlineto
          -91 callgsubr
          75 vlineto
          23 386 callgsubr
          99 -67 callgsubr
          -135 vlineto
          0 callsubr
          endchar
        </CharString>
        <CharString name="dvDH_RA">
          95 538 631 98 callgsubr
          -135 vlineto
          -32 16 -16 26 -3 vhcurveto
          198 callsubr
        </CharString>
        <CharString name="dvDH_VA">
          302 742 43 callgsubr
          -385 -83 205 40 callgsubr
          -59 hlineto
          273 callsubr
          -193 -73 callgsubr
          174 hlineto
          25 14 7 15 7 hvcurveto
          -15 17 25 -7 32 hhcurveto
          227 callgsubr
          67 vlineto
          endchar
        </CharString>
        <CharString name="dvDH_YA">
          415 673 195 callgsubr
          -498 -83 86 179 callsubr
          -99 -187 hlineto
          -53 callgsubr
          174 hlineto
          26 14 8 16 7 hvcurveto
          -16 19 29 -8 39 hhcurveto
          234 callsubr
        </CharString>
        <CharString name="dvD_BA">
          33 301 47 rmoveto
          -4 vlineto
          -115 120 rlineto
          78 hlineto
          15 11 2 3 11 hvcurveto
          -124 -149 rmoveto
          -21 -7 5 21 hvcurveto
          90 vlineto
          1 vlineto
          112 -117 rlineto
          138 378 321 callgsubr
          -151 83 callsubr
          -100 vlineto
          -58 28 -32 78 vhcurveto
          107 hlineto
          19 13 3 8 7 hvcurveto
          -83 114 452 -114 -53 vlineto
          -20 -6 -5 -21 vhcurveto
          -84 -90 callsubr
          97 -54 callsubr
          endchar
        </CharString>
        <CharString name="dvD_BHA">
          152 162 168 rmoveto
          70 415 callsubr
          -34 -83 15 273 callgsubr
          -265 105 73 196 83 -196 vlineto
          362 332 rmoveto
          168 68 83 -612 -83 430 -86 -93 246 callsubr
          -174 vlineto
          -71 6 callsubr
          47 hlineto
          20 157 callgsubr
          -143 113 323 -113 -79 vlineto
          -23 -8 -7 269 callsubr
          145 -54 callsubr
          endchar
        </CharString>
        <CharString name="dvD_B_RA">
          56 301 49 rmoveto
          0 vlineto
          -114 119 rlineto
          77 hlineto
          15 11 1 3 11 hvcurveto
          -152 -33 rmoveto
          3 vlineto
          117 -123 rlineto
          -89 414 callsubr
          250 352 321 callgsubr
          -147 vlineto
          34 callgsubr
          -33 vvcurveto
          -104 vlineto
          -58 28 -32 78 vhcurveto
          28 hlineto
          -113 -120 rlineto
          108 hlineto
          123 134 rlineto
          -86 114 457 -114 -53 vlineto
          -20 -6 -5 -21 vhcurveto
          -84 -90 callsubr
          92 -54 callsubr
          endchar
        </CharString>
        <CharString name="dvD_DA">
          4 358 274 callsubr
          86 83 -470 -83 271 -69 -112 vlineto
          -69 -32 -28 -63 hvcurveto
          -67 vlineto
          -32 15 -16 114 callgsubr
          -33 vvcurveto
          -71 vlineto
          -63 32 -28 69 vhcurveto
          88 308 callsubr
          -74 -54 callgsubr
          36 -68 callsubr
          58 83 -58 -90 callsubr
          31 6 callgsubr
          endchar
        </CharString>
        <CharString name="dvD_DHA">
          217 149 89 rmoveto
          -56 callgsubr
          51 83 -51 -90 callsubr
          31 -92 callsubr
          51 83 -77 hlineto
          198 callgsubr
          440 325 331 callsubr
          -201 vlineto
          170 callsubr
        </CharString>
        <CharString name="dvD_GA">
          233 callgsubr
          -101 vlineto
          -16 -4 -4 -17 vhcurveto
          -20 -63 66 hlineto
          59 21 24 46 hvcurveto
          103 18 vlineto
          20 13 175 callgsubr
          -227 104 413 281 callgsubr
        </CharString>
        <CharString name="dvD_GHA">
          217 589 385 331 callsubr
          -9 -127 vlineto
          198 callgsubr
          29 -68 callsubr
          51 83 -51 -90 callsubr
          31 -92 callsubr
          101 -109 hlineto
          170 callsubr
        </CharString>
        <CharString name="dvD_G_RA">
          233 callgsubr
          -74 vlineto
          -16 -4 -5 -17 vhcurveto
          -20 -63 66 hlineto
          59 21 24 47 hvcurveto
          76 18 vlineto
          20 13 175 callgsubr
          -113 vlineto
          -224 -208 rlineto
          108 hlineto
          116 106 rlineto
          -74 104 475 281 callgsubr
        </CharString>
        <CharString name="dvD_MA">
          195 453 171 rmoveto
          -97 123 -114 -57 hlineto
          7 callgsubr
          -21 vhcurveto
          -33 -54 callgsubr
          134 -54 callsubr
          171 151 101 hlineto
          184 callsubr
          -655 -83 258 -69 -93 hlineto
          131 callsubr
          -163 vlineto
          -71 33 -29 352 callgsubr
          -137 114 89 97 -89 -91 callsubr
        </CharString>
        <CharString name="dvD_NA">
          235 callgsubr
          56 hlineto
          20 13 175 callgsubr
          -77 -79 vlineto
          -62 -33 -26 -65 hvcurveto
          -46 91 32 -54 callsubr
          55 -108 104 448 -104 -87 hlineto
          7 callgsubr
          -21 vhcurveto
          -42 256 callgsubr
        </CharString>
        <CharString name="dvD_R">
          -17 245 hmoveto
          427 callgsubr
          hlineto
          -23 -8 -7 269 callsubr
          155 -54 callsubr
          170 217 callsubr
          -96 callgsubr
          -193 vlineto
          -58 26 -29 55 -4 vhcurveto
          325 callgsubr
          106 -170 221 callgsubr
        </CharString>
        <CharString name="dvD_RA">
          178 callgsubr
          143 callsubr
        </CharString>
        <CharString name="dvD_VA">
          0 232 145 rmoveto
          14 11 2 3 10 hvcurveto
          -102 vlineto
          312 callgsubr
          70 vlineto
          23 6 5 22 vhcurveto
          198 252 rmoveto
          151 64 83 -466 -83 289 -69 -121 vlineto
          273 callsubr
          -168 vlineto
          -32 15 -16 114 callgsubr
          -32 vvcurveto
          -84 vlineto
          -58 27 278 callsubr
          -61 hlineto
          131 callgsubr
          113 -54 callsubr
          endchar
        </CharString>
        <CharString name="dvD_YA">
          104 353 185 rmoveto
          -22 -8 -7 -21 vhcurveto
          -137 36 callgsubr
          38 vlineto
          23 6 4 22 vhcurveto
          61 79 -61 hlineto
          -22 -6 4 22 hvcurveto
          32 163 callsubr
          86 137 80 hlineto
          184 callsubr
          -544 -83 177 -63 -21 hlineto
          -69 -32 -27 -59 hvcurveto
          -62 vlineto
          -31 15 -15 122 callsubr
          -14 -31 vvcurveto
          -73 vlineto
          -59 32 -27 69 vhcurveto
          165 hlineto
          20 13 4 7 8 hvcurveto
          -89 -14 callgsubr
        </CharString>
        <CharString name="dvE">
          16 456 43 callgsubr
          -476 31 callgsubr
        </CharString>
        <CharString name="dvEcandra">
          16 294 670 rmoveto
          80 402 callgsubr
          -98 -54 vlineto
          -23 -6 -6 -24 vhcurveto
          -110 hlineto
          -23 -7 6 23 hvcurveto
          54 -97 -66 vlineto
          -59 31 -29 80 vhcurveto
          304 -39 rmoveto
          -476 31 callgsubr
        </CharString>
        <CharString name="dvEight">
          24 callgsubr
        </CharString>
        <CharString name="dvEyelash">
          -104 336 382 rmoveto
          -88 414 callsubr
          52 -110 -65 vlineto
          -62 26 -34 78 vhcurveto
          122 hlineto
          -356 332 rmoveto
          -83 356 83 vlineto
          endchar
        </CharString>
        <CharString name="dvEyelash_HA">
          173 545 274 callsubr
          74 83 -639 -83 451 -69 -102 vlineto
          -82 -23 -32 -69 hvcurveto
          -20 -62 vlineto
          -21 -6 5 21 hvcurveto
          60 -110 -73 vlineto
          -62 26 -34 78 vhcurveto
          136 -3 hlineto
          -26 -3 -15 -15 -33 vvcurveto
          -121 vlineto
          -23 callgsubr
          211 83 -185 309 callgsubr
          113 47 293 callgsubr
          -70 hlineto
          -22 -6 6 20 hvcurveto
          30 vlineto
          20 36 callsubr
          endchar
        </CharString>
        <CharString name="dvEyelash_YA">
          207 465 209 callgsubr
          184 callsubr
          -667 -83 254 hlineto
          243 callgsubr
          -87 hlineto
          -21 -6 5 21 hvcurveto
          52 -110 -65 vlineto
          -62 26 -34 78 vhcurveto
          20 -121 hlineto
          -75 callgsubr
          69 vlineto
          endchar
        </CharString>
        <CharString name="dvFive">
          106 callsubr
        </CharString>
        <CharString name="dvFour">
          186 callsubr
        </CharString>
        <CharString name="dvG">
          -26 174 161 rmoveto
          -88 callgsubr
          207 470 rmoveto
          -436 -83 -96 callsubr
          65 vlineto
          endchar
        </CharString>
        <CharString name="dvGA">
          186 174 161 rmoveto
          -88 callgsubr
          417 470 rmoveto
          -646 -83 -96 callsubr
          93 221 callsubr
        </CharString>
        <CharString name="dvGH">
          -163 363 436 callsubr
          -383 -83 71 vlineto
          -4 -6 -3 -8 -12 vvcurveto
          -116 48 callgsubr
          203 83 -178 67 callsubr
          26 6 6 26 vhcurveto
          endchar
        </CharString>
        <CharString name="dvGHA">
          47 305 -62 callgsubr
          -86 67 callsubr
          30 8 2 41 vhcurveto
          98 hlineto
          184 callsubr
          -507 -83 73 hlineto
          374 callgsubr
          -114 48 callgsubr
          106 -64 callsubr
        </CharString>
        <CharString name="dvGH_MA">
          453 712 204 callsubr
          -359 rmoveto
          -23 -8 333 callsubr
          72 hlineto
          -316 -188 248 callgsubr
          96 301 callsubr
          82 -53 -90 callsubr
          93 vlineto
          26 6 6 26 vhcurveto
          311 -116 -99 231 callgsubr
          -147 vlineto
          -25 -52 callsubr
          631 470 rmoveto
          -913 -83 71 hlineto
          -4 -6 -3 -8 -12 vvcurveto
          -116 48 callgsubr
          103 hlineto
          29 20 8 15 11 hvcurveto
          -16 19 416 callsubr
          88 hlineto
          82 33 314 callgsubr
          68 vlineto
          endchar
        </CharString>
        <CharString name="dvGH_NA">
          423 680 479 rmoveto
          -278 -96 callgsubr
          -194 vlineto
          -25 -52 callsubr
          -77 67 callsubr
          26 6 6 26 vhcurveto
          490 hlineto
          -189 -359 rmoveto
          -23 -8 -5 -21 225 callsubr
          371 234 rmoveto
          -882 -83 71 hlineto
          -4 -6 -3 -8 -12 vvcurveto
          -116 48 callgsubr
          103 hlineto
          29 20 8 15 11 hvcurveto
          -16 19 416 callsubr
          134 callsubr
          69 vlineto
          endchar
        </CharString>
        <CharString name="dvGH_R">
          -105 339 436 callsubr
          -359 -83 73 vlineto
          374 callgsubr
          -105 vlineto
          0 callsubr
          -116 vlineto
          -62 30 -29 64 vhcurveto
          64 258 callgsubr
          119 188 rlineto
          52 -154 vlineto
          -91 callgsubr
          80 301 callsubr
          83 -53 -90 callsubr
          83 vlineto
          30 8 2 41 vhcurveto
          endchar
        </CharString>
        <CharString name="dvGH_RA">
          48 306 395 callgsubr
          -92 -90 callsubr
          80 6 callgsubr
          53 83 -53 -90 callsubr
          84 vlineto
          30 8 2 41 vhcurveto
          99 hlineto
          184 callsubr
          -508 -83 73 hlineto
          374 callgsubr
          -105 1 callsubr
          -3 -16 -15 -32 vvcurveto
          -115 vlineto
          -62 30 -29 64 vhcurveto
          46 hlineto
          -102 -158 408 callgsubr
          548 68 vlineto
          endchar
        </CharString>
        <CharString name="dvGH_YA">
          344 613 -60 callsubr
          -317 -166 rmoveto
          -188 vlineto
          -25 -52 callsubr
          -77 67 callsubr
          26 6 6 26 vhcurveto
          193 179 callsubr
          388 249 rmoveto
          -804 -83 71 hlineto
          -4 -6 -3 -8 -12 vvcurveto
          -116 48 callgsubr
          103 hlineto
          30 20 8 16 11 hvcurveto
          -16 19 29 -8 39 hhcurveto
          163 hlineto
          18 157 callgsubr
          -90 -55 callsubr
          57 vlineto
          endchar
        </CharString>
        <CharString name="dvG_BA">
          443 580 161 147 callgsubr
          -507 hmoveto
          -88 callgsubr
          678 470 rmoveto
          -907 -83 -96 callsubr
          354 -223 vlineto
          -89 6 -32 141 callgsubr
          -29 45 vhcurveto
          -61 101 rlineto
          74 78 -119 hlineto
          -78 -28 -29 -62 hvcurveto
          -210 287 callsubr
        </CharString>
        <CharString name="dvG_BHA">
          592 174 161 rmoveto
          -88 callgsubr
          -229 387 rmoveto
          -96 callsubr
          58 83 -429 vlineto
          659 -442 50 callsubr
        </CharString>
        <CharString name="dvG_BH_YA">
          909 174 161 rmoveto
          -88 callgsubr
          -229 387 rmoveto
          -96 callsubr
          58 83 -429 vlineto
          1169 -436 165 callsubr
          141 95 callgsubr
          88 101 callsubr
          -510 -359 48 callsubr
          115 -92 callgsubr
          63 hlineto
          692 301 rmoveto
          -499 397 callsubr
          -76 -49 callgsubr
          -179 124 hlineto
          -58 callgsubr
          -111 -98 246 callgsubr
          -144 18 callgsubr
          152 79 -152 vlineto
          -75 callgsubr
          69 vlineto
          endchar
        </CharString>
        <CharString name="dvG_DA">
          379 174 161 rmoveto
          -88 callgsubr
          537 236 432 callsubr
          -835 -83 257 -102 -82 vlineto
          167 callsubr
          -173 vlineto
          -70 268 callsubr
          70 hvcurveto
          370 282 -69 -93 246 callsubr
          -210 29 callgsubr
        </CharString>
        <CharString name="dvG_DHA">
          473 174 161 rmoveto
          -88 callgsubr
          -229 387 rmoveto
          -96 callsubr
          59 83 -430 vlineto
          936 hmoveto
          376 callsubr
          -353 -73 callgsubr
          153 110 callgsubr
        </CharString>
        <CharString name="dvG_DH_VA">
          681 174 161 rmoveto
          -88 callgsubr
          -229 387 rmoveto
          -96 callsubr
          59 83 -430 vlineto
          1141 hmoveto
          -387 -83 205 -358 hlineto
          -106 callsubr
          -193 vlineto
          -3 callsubr
          -123 vlineto
          -62 32 -29 69 vhcurveto
          170 hlineto
          25 17 7 14 10 hvcurveto
          -14 17 24 -7 32 282 callsubr
          68 vlineto
          endchar
        </CharString>
        <CharString name="dvG_DH_YA">
          793 174 161 rmoveto
          -88 callgsubr
          -229 387 rmoveto
          -96 callsubr
          59 83 -430 vlineto
          1071 -436 165 callsubr
          110 21 -42 callgsubr
          90 hlineto
          184 callsubr
          -499 -83 87 62 callsubr
          -187 hlineto
          -3 callsubr
          -123 vlineto
          -62 32 -29 69 vhcurveto
          170 hlineto
          26 18 7 15 9 hvcurveto
          -15 19 28 -7 38 hhcurveto
          117 callsubr
        </CharString>
        <CharString name="dvG_GA">
          576 564 161 rmoveto
          -88 callgsubr
          -425 hmoveto
          -88 callgsubr
          807 470 rmoveto
          -1036 -83 -96 callsubr
          276 -102 -82 vlineto
          167 callsubr
          -173 vlineto
          -70 268 callsubr
          70 hvcurveto
          370 93 221 callsubr
        </CharString>
        <CharString name="dvG_GHA">
          440 703 -62 callgsubr
          -86 67 callsubr
          30 8 2 41 vhcurveto
          98 hlineto
          -529 -387 rmoveto
          -88 callgsubr
          676 470 rmoveto
          -905 -83 -96 callsubr
          100 vlineto
          374 callgsubr
          -114 48 callgsubr
          106 -64 callsubr
        </CharString>
        <CharString name="dvG_JA">
          566 174 161 rmoveto
          -88 callgsubr
          801 470 rmoveto
          -1030 -83 -96 callsubr
          477 379 callgsubr
          vlineto
          -87 callgsubr
          76 callgsubr
          vlineto
          endchar
        </CharString>
        <CharString name="dvG_LA">
          569 174 161 rmoveto
          -88 callgsubr
          799 470 rmoveto
          -1028 -83 -96 callsubr
          479 -69 -87 vlineto
          -93 callsubr
          -288 vlineto
          -61 28 -30 77 17 callsubr
          23 vhcurveto
          55 -397 -55 callsubr
          64 hlineto
          endchar
        </CharString>
        <CharString name="dvG_MA">
          592 850 -14 callsubr
          -465 -188 rmoveto
          -88 callgsubr
          823 470 rmoveto
          -1052 -83 -96 callsubr
          288 -116 -98 vlineto
          224 callsubr
        </CharString>
        <CharString name="dvG_NA">
          560 629 189 -99 callgsubr
          -455 -236 rmoveto
          -88 callgsubr
          791 470 rmoveto
          -1020 -83 -96 callsubr
          467 -69 -277 vlineto
          224 callgsubr
        </CharString>
        <CharString name="dvG_NNA">
          571 632 189 rmoveto
          -77 callgsubr
          359 84 vlineto
          -458 -387 rmoveto
          -88 callgsubr
          802 470 rmoveto
          -1031 -83 -96 callsubr
          84 -370 vlineto
          280 callsubr
        </CharString>
        <CharString name="dvG_N_YA">
          881 1139 115 callgsubr
          -453 -190 rmoveto
          -88 callgsubr
          1112 470 rmoveto
          -1341 -83 -96 callsubr
          558 228 callgsubr
          -383 318 callgsubr
          -164 37 callsubr
        </CharString>
        <CharString name="dvG_R">
          37 270 -63 81 callgsubr
        </CharString>
        <CharString name="dvG_RA">
          186 174 235 72 callgsubr
        </CharString>
        <CharString name="dvG_R_YA">
          493 751 -60 callsubr
          -577 -313 80 callgsubr
          724 396 rmoveto
          -953 -83 257 -69 -82 hlineto
          305 callsubr
          170 vlineto
          -7 callsubr
          -148 hlineto
          -282 -297 rlineto
          118 hlineto
          176 185 rlineto
          -30 16 34 -14 53 hhcurveto
          439 callgsubr
          -91 callsubr
        </CharString>
        <CharString name="dvG_SA">
          568 826 352 rmoveto
          -95 hlineto
          -76 callgsubr
          88 hlineto
          -652 -387 rmoveto
          -88 callgsubr
          799 470 rmoveto
          -1028 -83 -96 callsubr
          249 vlineto
          -107 callsubr
          278 -270 -14 callgsubr
        </CharString>
        <CharString name="dvG_VA">
          382 174 161 rmoveto
          -88 callgsubr
          613 470 rmoveto
          -842 -83 -96 callsubr
          289 124 callsubr
        </CharString>
        <CharString name="dvG_YA">
          494 752 -60 callsubr
          -578 -387 rmoveto
          -88 callgsubr
          725 470 rmoveto
          -954 -83 -96 callsubr
          171 vlineto
          -7 callsubr
          -204 -18 callgsubr
        </CharString>
        <CharString name="dvGx">
          -26 140 -106 9 callsubr
          34 162 rmoveto
          -88 callgsubr
          207 470 rmoveto
          -436 -83 -96 callsubr
          65 vlineto
          endchar
        </CharString>
        <CharString name="dvGxA">
          186 141 -101 9 callsubr
          33 157 rmoveto
          -88 callgsubr
          417 470 rmoveto
          -646 -83 -96 callsubr
          93 221 callsubr
        </CharString>
        <CharString name="dvGx_R">
          37 382 -126 9 callsubr
          -112 -42 81 callgsubr
        </CharString>
        <CharString name="dvGx_RA">
          186 354 -152 9 callsubr
          -180 282 72 callgsubr
        </CharString>
        <CharString name="dvH">
          -27 370 274 callsubr
          117 83 -507 422 callgsubr
          -66 vlineto
          0 callsubr
          -118 vlineto
          -23 callgsubr
          212 83 -186 -90 callsubr
          90 -68 callsubr
          298 83 -298 317 callsubr
          34 442 callsubr
          21 vhcurveto
          endchar
        </CharString>
        <CharString name="dvHA">
          -2 370 274 callsubr
          74 83 -464 422 callgsubr
          -62 vlineto
          -33 16 -15 -35 callsubr
          -33 vvcurveto
          -121 vlineto
          -23 callgsubr
          212 83 -186 -17 callgsubr
          endchar
        </CharString>
        <CharString name="dvHA_mU">
          -2 370 274 callsubr
          74 83 -464 422 callgsubr
          -62 vlineto
          -33 16 -15 -35 callsubr
          -33 vvcurveto
          -121 vlineto
          -70 28 -30 87 vhcurveto
          70 390 callsubr
          -58 hlineto
          -24 -15 7 19 -12 hvcurveto
          -23 38 rlineto
          -134 hlineto
          34 -58 rlineto
          -69 40 35 -20 88 hhcurveto
          111 hlineto
          68 34 -31 callgsubr
          52 164 callgsubr
          -86 -17 callgsubr
          endchar
        </CharString>
        <CharString name="dvHA_mUU">
          4 422 -4 rmoveto
          63 -41 -25 24 -86 hhcurveto
          -81 -17 callgsubr
          181 151 74 83 -464 260 callsubr
          -125 vlineto
          -43 10 -26 27 -12 vhcurveto
          -2 -9 -1 -11 -12 vvcurveto
          -52 vlineto
          -71 30 -29 68 vhcurveto
          94 83 -52 297 callsubr
          42 hlineto
          23 12 -10 -19 12 hvcurveto
          87 -139 rlineto
          126 hlineto
          endchar
        </CharString>
        <CharString name="dvHA_mvR">
          -9 362 253 callgsubr
          74 83 -456 181 callsubr
          -57 vlineto
          0 callsubr
          -127 vlineto
          -23 callgsubr
          212 74 -186 -90 callsubr
          126 -68 callsubr
          48 hlineto
          11 4 -4 -8 hvcurveto
          -20 -36 -27 -36 vvcurveto
          -33 23 -15 43 vhcurveto
          78 60 -40 hlineto
          -11 -4 4 8 hvcurveto
          21 38 30 39 vvcurveto
          36 -25 14 -44 vhcurveto
          -85 hlineto
          -21 -6 6 20 hvcurveto
          25 289 callsubr
        </CharString>
        <CharString name="dvH_LA">
          140 362 253 callgsubr
          223 83 -605 145 callsubr
          -237 172 callgsubr
          239 -68 callsubr
          230 273 callgsubr
          -13 -46 vlineto
          -23 -9 -9 -14 -6 hvcurveto
          -1 hlineto
          16 -5 -13 7 -29 hhcurveto
          -31 hlineto
          -49 -26 -20 -49 hvcurveto
          -71 vlineto
          -49 26 -21 49 vhcurveto
          61 60 -48 hlineto
          -19 -4 4 19 hvcurveto
          46 vlineto
          19 4 4 19 vhcurveto
          9 hlineto
          19 4 -4 -19 hvcurveto
          -34 65 34 vlineto
          19 4 4 19 vhcurveto
          30 -151 73 235 hlineto
          55 -26 27 -62 vhcurveto
          -244 317 callsubr
          31 289 callsubr
        </CharString>
        <CharString name="dvH_MA">
          202 464 255 rmoveto
          -92 hlineto
          40 -8 -27 20 -55 hhcurveto
          -93 112 callgsubr
          181 151 94 hlineto
          331 callgsubr
          -665 260 callsubr
          -121 vlineto
          -23 callgsubr
          212 83 -186 319 callsubr
          -75 113 53 89 -183 211 callsubr
        </CharString>
        <CharString name="dvH_NA">
          30 362 253 callgsubr
          108 83 -490 181 callsubr
          -45 1 callsubr
          -3 -16 -15 -32 vvcurveto
          -138 vlineto
          -23 callgsubr
          200 74 -174 -90 callsubr
          143 -68 callsubr
          133 273 callgsubr
          -13 -68 vlineto
          -56 -28 -23 -54 hvcurveto
          -26 77 20 vlineto
          22 5 5 23 vhcurveto
          47 -63 72 142 hlineto
          54 -27 28 -61 vhcurveto
          -146 317 callsubr
          14 289 callsubr
        </CharString>
        <CharString name="dvH_NNA">
          89 309 183 rmoveto
          -12 -2 -5 -12 vhcurveto
          -12 hlineto
          -12 -2 5 12 hvcurveto
          90 40 vlineto
          53 128 rmoveto
          147 167 83 -549 181 callsubr
          -45 1 callsubr
          -3 -16 -15 -32 vvcurveto
          -138 172 callgsubr
          143 -68 callsubr
          13 -97 hlineto
          -37 20 -24 41 vhcurveto
          52 hlineto
          41 19 24 37 hvcurveto
          97 13 vlineto
          21 433 callsubr
          -56 74 66 vlineto
          54 -27 28 -61 vhcurveto
          -213 317 callsubr
          14 289 callsubr
        </CharString>
        <CharString name="dvH_RA">
          44 362 253 callgsubr
          122 83 -504 145 callsubr
          -121 172 callgsubr
          126 -68 callsubr
          74 hlineto
          -68 -133 rlineto
          76 hlineto
          68 132 rlineto
          13 -2 4 -7 -18 vvcurveto
          -68 74 78 vlineto
          55 -27 27 -61 vhcurveto
          -153 317 callsubr
          31 289 callsubr
        </CharString>
        <CharString name="dvH_VA">
          82 362 253 callgsubr
          165 83 -547 145 callsubr
          -237 vlineto
          -23 callgsubr
          196 74 -170 -90 callsubr
          239 -68 callsubr
          170 190 callsubr
          -111 vlineto
          -73 callsubr
          -60 hlineto
          -19 -4 4 19 hvcurveto
          17 vlineto
          19 4 4 19 vhcurveto
          45 58 -57 hlineto
          -50 -26 -20 -49 hvcurveto
          -42 vlineto
          -49 26 -20 50 vhcurveto
          74 hlineto
          14 11 3 6 7 hvcurveto
          -46 74 254 vlineto
          55 -27 27 -61 vhcurveto
          -184 317 callsubr
          31 289 callsubr
        </CharString>
        <CharString name="dvH_YA">
          209 463 232 rmoveto
          -73 callsubr
          -73 hlineto
          6 9 3 12 13 vvcurveto
          10 vlineto
          56 -24 31 -67 vhcurveto
          -85 317 callsubr
          22 vlineto
          19 6 6 21 vhcurveto
          173 147 101 hlineto
          331 callgsubr
          -664 -83 269 -69 -95 hlineto
          131 callsubr
          -53 vlineto
          -33 16 -15 -35 callsubr
          -33 vvcurveto
          -130 172 callgsubr
          135 -68 callsubr
          66 hlineto
          20 5 -5 -20 hvcurveto
          -17 vlineto
          -20 -5 -5 -20 vhcurveto
          -39 -64 215 hlineto
          14 11 3 6 7 hvcurveto
          -143 112 -9 callgsubr
        </CharString>
        <CharString name="dvI">
          -26 341 253 callgsubr
          73 83 -434 14 callgsubr
          endchar
        </CharString>
        <CharString name="dvII">
          -26 341 253 callgsubr
          73 83 -73 55 -92 callgsubr
          42 78 -77 -96 callgsubr
          -68 -248 14 callgsubr
          endchar
        </CharString>
        <CharString name="dvII_Anusvara">
          -26 341 751 rmoveto
          21 6 5 22 vhcurveto
          50 78 -86 hlineto
          273 callsubr
          -133 -248 14 callgsubr
          167 147 73 83 -73 hlineto
          33 113 rmoveto
          -84 79 84 vlineto
          endchar
        </CharString>
        <CharString name="dvJ">
          -36 470 136 callgsubr
        </CharString>
        <CharString name="dvJA">
          175 615 631 133 callsubr
        </CharString>
        <CharString name="dvJH">
          -19 346 253 callgsubr
          143 83 -509 132 callsubr
          133 79 -309 414 callsubr
          33 -92 callgsubr
          endchar
        </CharString>
        <CharString name="dvJHA">
          191 450 316 rmoveto
          -270 hlineto
          249 callsubr
          104 hlineto
          331 callgsubr
          -660 -83 261 -6 callgsubr
          93 -237 -93 callgsubr
          hlineto
          endchar
        </CharString>
        <CharString name="dvJH_MA">
          587 845 -14 callsubr
          -463 -33 rmoveto
          249 callsubr
          297 -116 -98 231 callgsubr
          -25 vlineto
          597 315 rmoveto
          -1056 -83 252 -6 callgsubr
          83 -42 276 callsubr
        </CharString>
        <CharString name="dvJH_NA">
          564 822 479 rmoveto
          338 callgsubr
          -72 -259 vlineto
          249 callsubr
          476 hlineto
          -189 -359 139 callgsubr
          -1024 -83 252 -6 callgsubr
          83 -59 hlineto
          105 callgsubr
        </CharString>
        <CharString name="dvJH_R">
          89 347 -93 rmoveto
          192 197 rlineto
          111 vlineto
          -313 -308 rlineto
          120 494 rmoveto
          147 193 83 -559 132 callsubr
          183 79 -359 414 callsubr
          33 -92 callgsubr
          endchar
        </CharString>
        <CharString name="dvJH_RA">
          191 450 336 rmoveto
          -270 hlineto
          -21 -7 5 20 hvcurveto
          28 -92 callgsubr
          166 133 104 hlineto
          331 callgsubr
          -660 -83 261 -62 -87 hlineto
          -78 -28 -27 -57 hvcurveto
          -53 vlineto
          -58 28 -27 78 vhcurveto
          72 153 callgsubr
          -20 hvcurveto
          -49 vlineto
          -21 -7 -4 -21 vhcurveto
          -63 43 -114 -208 114 93 213 callgsubr
          27 57 hvcurveto
          67 vlineto
          7 -1 7 -1 6 vhcurveto
          93 -81 hlineto
          -248 -237 rlineto
          111 hlineto
          137 137 rlineto
          -83 -91 callsubr
        </CharString>
        <CharString name="dvJH_YA">
          489 747 -60 callsubr
          -317 -166 rmoveto
          -66 -259 vlineto
          249 callsubr
          180 334 callsubr
          -958 -83 252 -6 callgsubr
          83 -59 -18 callgsubr
        </CharString>
        <CharString name="dvJ_BA">
          445 578 161 2 callsubr
          72 -112 rcurveline
          207 470 rmoveto
          -905 -83 723 216 callgsubr
          -422 208 callsubr
          84 -9 vlineto
          -210 vlineto
          -70 34 -30 68 266 callgsubr
          -14 callgsubr
        </CharString>
        <CharString name="dvJ_DA">
          378 749 274 callsubr
          73 83 -842 -83 656 -69 -396 94 callsubr
          -9 vlineto
          -210 77 callsubr
          47 308 callsubr
          -33 -83 callsubr
          180 409 callgsubr
        </CharString>
        <CharString name="dvJ_DDA">
          372 725 430 callsubr
          -832 -83 631 -69 -371 94 callsubr
          -9 vlineto
          -76 vlineto
          -62 28 -29 78 vhcurveto
          57 -15 callsubr
          -90 vlineto
          -22 -6 -5 -21 vhcurveto
          -34 hlineto
          -19 -6 361 callsubr
          77 29 30 callsubr
          117 vlineto
          62 -29 29 -77 vhcurveto
          -57 414 callsubr
          50 -92 callgsubr
          endchar
        </CharString>
        <CharString name="dvJ_JA">
          569 1009 43 callgsubr
          -1029 -83 847 -69 -193 -290 hlineto
          -36 callsubr
          -310 94 callsubr
          -219 158 callsubr
        </CharString>
        <CharString name="dvJ_JHA">
          589 848 316 rmoveto
          -270 hlineto
          249 callsubr
          104 hlineto
          331 callgsubr
          -1049 -83 650 -69 -390 208 callsubr
          84 -9 vlineto
          -55 callgsubr
          93 -237 -93 callgsubr
          hlineto
          endchar
        </CharString>
        <CharString name="dvJ_J_NYA">
          554 980 43 callgsubr
          -1000 -83 817 -82 -557 -277 hlineto
          -77 callgsubr
          383 callgsubr
          -288 -72 callgsubr
          205 225 vlineto
          171 callgsubr
          77 28 29 62 hvcurveto
          223 vlineto
          12 -2 7 -5 6 vhcurveto
          86 -383 -55 callsubr
          69 hlineto
          endchar
        </CharString>
        <CharString name="dvJ_J_VA">
          773 1213 43 callgsubr
          -1233 -83 1051 264 callsubr
          181 123 callgsubr
          -357 -290 hlineto
          245 callgsubr
          290 -310 94 callsubr
          -219 77 callsubr
          81 152 callgsubr
          219 81 vlineto
          -2 -9 -1 -10 -9 vvcurveto
          -191 347 callsubr
          548 68 vlineto
          endchar
        </CharString>
        <CharString name="dvJ_J_YA">
          881 1139 -57 callgsubr
          178 20 vlineto
          77 26 33 62 hvcurveto
          54 vlineto
          13 -3 11 -5 8 425 callgsubr
          -1341 -83 933 hlineto
          32 4 -4 -23 hvcurveto
          -46 -49 callgsubr
          -293 -260 hlineto
          245 callgsubr
          260 -305 -260 vlineto
          -77 callgsubr
          260 -113 -271 -72 callgsubr
          189 79 -189 77 callsubr
          80 411 callgsubr
          189 79 -189 vlineto
          -23 callgsubr
          117 callsubr
        </CharString>
        <CharString name="dvJ_KA">
          581 1015 436 callsubr
          -1035 -83 662 -358 vlineto
          -103 callgsubr
          -362 208 callsubr
          84 -9 vlineto
          -210 15 callsubr
        </CharString>
        <CharString name="dvJ_MA">
          594 852 432 rmoveto
          -97 116 97 hlineto
          -211 100 callgsubr
          393 282 rmoveto
          -1054 -83 661 -116 -401 -243 hlineto
          -77 callgsubr
          243 -113 -254 -72 callgsubr
          171 84 242 callsubr
        </CharString>
        <CharString name="dvJ_NA">
          562 631 189 111 callgsubr
          371 234 rmoveto
          -1022 -83 840 -69 -580 208 callsubr
          84 -9 vlineto
          -210 vlineto
          -70 33 -30 82 vhcurveto
          78 hlineto
          82 43 callsubr
        </CharString>
        <CharString name="dvJ_NY">
          -39 68 383 rmoveto
          142 hlineto
          171 callgsubr
          78 28 29 62 hvcurveto
          223 vlineto
          11 29 callsubr
          137 83 -413 hlineto
          -88 165 rmoveto
          -83 501 83 vlineto
          endchar
        </CharString>
        <CharString name="dvJ_NYA">
          172 612 43 callgsubr
          -632 -83 449 -82 -361 -83 142 hlineto
          171 callgsubr
          78 28 29 62 hvcurveto
          223 vlineto
          11 29 callsubr
          85 -383 -55 callsubr
          69 hlineto
          endchar
        </CharString>
        <CharString name="dvJ_NY_YA">
          484 742 -57 callgsubr
          145 95 callgsubr
          84 128 callsubr
          184 callsubr
          -944 -83 532 152 callsubr
          -72 -4 callsubr
          -457 -83 142 -15 callsubr
          -160 -49 callgsubr
          -52 74 -114 -223 114 71 87 291 callsubr
          174 vlineto
          11 29 callsubr
          81 -156 hlineto
          -23 callgsubr
          163 -64 callsubr
        </CharString>
        <CharString name="dvJ_R">
          88 callgsubr
          endchar
        </CharString>
        <CharString name="dvJ_RA">
          175 615 631 94 callgsubr
        </CharString>
        <CharString name="dvJ_TA">
          400 840 43 callgsubr
          -860 -83 678 -69 -418 208 callsubr
          84 -9 vlineto
          -71 callgsubr
          80 424 callsubr
          hlineto
          endchar
        </CharString>
        <CharString name="dvJ_TTA">
          370 744 274 callsubr
          66 83 -830 -83 650 -69 -390 94 callsubr
          -9 vlineto
          -288 77 callsubr
          81 152 callgsubr
          114 435 callsubr
          245 callgsubr
          258 409 callgsubr
        </CharString>
        <CharString name="dvJ_VA">
          384 824 43 callgsubr
          -844 -83 662 164 callsubr
          -362 208 callsubr
          84 -9 vlineto
          -102 callsubr
          548 68 vlineto
          endchar
        </CharString>
        <CharString name="dvJ_YA">
          492 750 195 165 callsubr
          178 20 vlineto
          78 26 33 62 hvcurveto
          54 vlineto
          13 -3 11 -5 8 425 callgsubr
          -952 -83 544 hlineto
          32 4 -4 -23 hvcurveto
          -46 -49 callgsubr
          -293 -260 hlineto
          -77 callgsubr
          260 -113 -271 -72 callgsubr
          189 80 -189 vlineto
          -75 callgsubr
          69 vlineto
          endchar
        </CharString>
        <CharString name="dvJx">
          -36 148 hmoveto
          -105 95 105 vlineto
          227 136 callgsubr
        </CharString>
        <CharString name="dvJxA">
          175 151 -100 9 callsubr
          464 626 133 callsubr
        </CharString>
        <CharString name="dvJx_JxA">
          569 149 -97 9 callsubr
          401 -105 9 callsubr
          459 623 rmoveto
          -1029 -83 847 -69 -193 -290 hlineto
          -36 callsubr
          -310 94 callsubr
          -219 158 callsubr
        </CharString>
        <CharString name="dvJx_R">
          88 callgsubr
          -129 -190 400 callgsubr
        </CharString>
        <CharString name="dvJx_RA">
          175 361 -146 9 callsubr
          254 672 94 callgsubr
        </CharString>
        <CharString name="dvJx_YA">
          492 148 -100 9 callsubr
          602 190 165 callsubr
          178 20 vlineto
          78 26 33 62 hvcurveto
          54 vlineto
          13 -3 11 -5 8 425 callgsubr
          -952 -83 544 hlineto
          32 4 -4 -23 hvcurveto
          -46 -49 callgsubr
          -293 -260 hlineto
          -77 callgsubr
          260 -113 -271 -72 callgsubr
          189 80 -189 vlineto
          -75 callgsubr
          69 vlineto
          endchar
        </CharString>
        <CharString name="dvK">
          -6 499 436 callsubr
          -519 -83 259 -358 vlineto
          -107 callgsubr
          9 callgsubr
          117 82 -105 37 callgsubr
          vlineto
          endchar
        </CharString>
        <CharString name="dvKA">
          172 612 436 callsubr
          -632 -83 259 -358 vlineto
          -23 -8 -6 -21 vhcurveto
          -35 hlineto
          -21 -7 5 23 hvcurveto
          186 vlineto
          21 7 5 21 vhcurveto
          24 78 -59 hlineto
          -78 -28 -29 -62 hvcurveto
          -210 vlineto
          103 callgsubr
        </CharString>
        <CharString name="dvKH">
          114 486 367 rmoveto
          305 callgsubr
          142 83 -105 -83 callsubr
          -506 419 rmoveto
          -83 206 vlineto
          -9 callsubr
          294 83 hlineto
          endchar
        </CharString>
        <CharString name="dvKHA">
          317 757 43 callgsubr
          -777 -90 callgsubr
          252 -332 hlineto
          -68 callgsubr
          -116 111 -9 callgsubr
        </CharString>
        <CharString name="dvKH_KHA">
          849 1289 43 callgsubr
          -1309 -90 callgsubr
          393 hlineto
          26 7 -6 -26 hvcurveto
          -162 vlineto
          -26 -7 -6 -26 vhcurveto
          -27 319 callgsubr
          -255 hlineto
          -68 callgsubr
          -21 vlineto
          -66 38 -29 86 vhcurveto
          250 84 -228 hlineto
          -26 -6 7 26 hvcurveto
          122 66 vlineto
          76 31 29 66 hvcurveto
          188 270 callsubr
          253 394 callsubr
          -31 156 callsubr
        </CharString>
        <CharString name="dvKH_MA">
          710 979 432 -27 callsubr
        </CharString>
        <CharString name="dvKH_NA">
          702 771 189 rmoveto
          -23 -7 -5 -21 58 callsubr
          53 hlineto
          371 234 rmoveto
          -1162 -90 callgsubr
          636 -69 -278 -96 callgsubr
          -172 vlineto
          49 callsubr
          163 -48 callsubr
          -187 vlineto
          329 callsubr
          65 hlineto
          24 15 5 11 10 hvcurveto
          -27 16 33 -12 52 311 callgsubr
        </CharString>
        <CharString name="dvKH_R">
          96 callgsubr
          167 188 rmoveto
          45 callsubr
          130 197 rlineto
          45 vlineto
          endchar
        </CharString>
        <CharString name="dvKH_RA">
          317 757 631 24 callsubr
        </CharString>
        <CharString name="dvKH_SHA">
          709 158 239 rmoveto
          66 hlineto
          -45 callsubr
          211 83 -556 -83 206 hlineto
          26 6 -6 -26 hvcurveto
          -162 409 callsubr
          -28 319 callgsubr
          -376 hlineto
          157 callsubr
          251 84 -229 343 callsubr
          526 517 rmoveto
          -78 206 callsubr
          114 231 callsubr
          18 vhcurveto
          31 -15 callsubr
          -157 429 callgsubr
          53 -114 -172 199 callgsubr
          22 78 -55 134 callgsubr
          98 hlineto
          77 29 30 callsubr
          100 -114 -86 295 callsubr
          148 73 vlineto
          85 39 97 callsubr
        </CharString>
        <CharString name="dvKH_TA">
          540 980 43 callgsubr
          -1000 -83 206 hlineto
          -9 callsubr
          473 -69 -115 -96 callgsubr
          -172 vlineto
          -68 callgsubr
          -25 vlineto
          -61 28 -30 78 vhcurveto
          59 84 -24 hlineto
          -21 -6 5 22 hvcurveto
          259 vlineto
          22 6 288 callsubr
        </CharString>
        <CharString name="dvKH_VA">
          515 955 631 -13 callgsubr
        </CharString>
        <CharString name="dvKH_YA">
          636 894 195 -27 callgsubr
        </CharString>
        <CharString name="dvKHx">
          114 141 -161 9 callsubr
          345 423 rmoveto
          305 callgsubr
          142 83 -105 -83 callsubr
          -506 419 rmoveto
          -83 206 vlineto
          -9 callsubr
          294 83 hlineto
          endchar
        </CharString>
        <CharString name="dvKHxA">
          317 141 -161 9 callsubr
          616 687 rmoveto
          -777 -90 callgsubr
          252 -332 hlineto
          -68 callgsubr
          -116 111 -9 callgsubr
        </CharString>
        <CharString name="dvKHx_MA">
          710 141 -161 9 callsubr
          838 488 -27 callsubr
        </CharString>
        <CharString name="dvKHx_R">
          96 callgsubr
          -134 -154 9 callsubr
          301 237 rmoveto
          45 callsubr
          130 197 rlineto
          45 vlineto
          endchar
        </CharString>
        <CharString name="dvKHx_RA">
          317 521 -152 9 callsubr
          236 678 24 callsubr
        </CharString>
        <CharString name="dvKHx_SA">
          716 141 -161 9 callsubr
          828 408 rmoveto
          -96 hlineto
          -38 callgsubr
          88 hlineto
          331 callgsubr
          -1170 -90 callgsubr
          417 hlineto
          382 callgsubr
          105 -114 -241 199 callgsubr
          22 78 -55 134 callgsubr
          98 hlineto
          77 29 30 61 hvcurveto
          117 -114 -103 295 callsubr
          165 278 -270 112 -9 callgsubr
        </CharString>
        <CharString name="dvKHx_SHA">
          709 141 -161 9 callsubr
          17 295 rmoveto
          66 hlineto
          -45 callsubr
          211 83 -556 -83 206 hlineto
          26 6 -6 -26 hvcurveto
          -162 409 callsubr
          -28 319 callgsubr
          -376 hlineto
          157 callsubr
          251 84 -229 343 callsubr
          526 517 rmoveto
          -78 206 callsubr
          114 231 callsubr
          18 vhcurveto
          31 -15 callsubr
          -157 429 callgsubr
          53 -114 -172 199 callgsubr
          22 78 -55 134 callgsubr
          98 hlineto
          77 29 30 callsubr
          100 -114 -86 295 callsubr
          148 73 vlineto
          85 39 97 callsubr
        </CharString>
        <CharString name="dvKHx_TA">
          540 141 -161 9 callsubr
          839 687 rmoveto
          -1000 -83 206 hlineto
          -9 callsubr
          473 -69 -115 -96 callgsubr
          -172 vlineto
          -68 callgsubr
          -25 vlineto
          -61 28 -30 78 vhcurveto
          59 84 -24 hlineto
          -21 -6 5 22 hvcurveto
          259 vlineto
          22 6 288 callsubr
        </CharString>
        <CharString name="dvKHx_VA">
          515 141 -161 9 callsubr
          814 687 -13 callgsubr
        </CharString>
        <CharString name="dvKHx_YA">
          636 141 -161 9 callsubr
          753 251 -27 callgsubr
        </CharString>
        <CharString name="dvK_CA">
          398 657 190 rmoveto
          7 callgsubr
          -22 vhcurveto
          -46 -90 callsubr
          150 vlineto
          271 callsubr
          -220 37 callgsubr
          304 vlineto
          331 callgsubr
          -858 -83 259 -358 hlineto
          -107 callgsubr
          9 callgsubr
          71 326 callsubr
          -150 vlineto
          -70 34 -30 68 vhcurveto
          73 52 callgsubr
        </CharString>
        <CharString name="dvK_DA">
          385 353 548 rmoveto
          290 -91 -249 hlineto
          -20 -13 202 callsubr
          404 -71 rmoveto
          174 72 83 -849 -83 259 -358 vlineto
          -107 callgsubr
          344 -40 callgsubr
          62 -9 hlineto
          -187 vlineto
          -70 33 418 callgsubr
          -90 114 271 -114 -81 vlineto
          7 callgsubr
          269 callsubr
          157 -54 callsubr
          endchar
        </CharString>
        <CharString name="dvK_JA">
          576 835 479 rmoveto
          -193 -290 hlineto
          314 callsubr
          290 -164 vlineto
          151 callgsubr
          80 482 vlineto
          331 callgsubr
          -1036 -83 259 -358 hlineto
          -107 callgsubr
          26 callsubr
          62 -219 hlineto
          433 callgsubr
          366 callgsubr
          219 80 -397 211 callsubr
        </CharString>
        <CharString name="dvK_KA">
          574 641 279 callsubr
          -207 337 callsubr
          288 vlineto
          373 hmoveto
          83 -1034 -83 259 -358 vlineto
          -107 callgsubr
          26 callsubr
          60 hlineto
          -4 -12 -2 -12 -12 vvcurveto
          -183 15 callsubr
        </CharString>
        <CharString name="dvK_KHA">
          717 618 354 rmoveto
          -26 -7 -6 -25 vhcurveto
          -28 127 216 callsubr
          233 vlineto
          26 6 -6 -26 hvcurveto
          539 115 rmoveto
          -1177 -83 259 -358 hlineto
          -107 callgsubr
          9 callgsubr
          62 -272 hlineto
          157 callsubr
          251 84 -229 57 callgsubr
          -332 hlineto
          -68 callgsubr
          -116 111 -9 callgsubr
        </CharString>
        <CharString name="dvK_LA">
          578 840 449 rmoveto
          135 callgsubr
          -255 37 callgsubr
          487 vlineto
          178 83 rmoveto
          -1038 -83 259 -358 hlineto
          -107 callgsubr
          315 callsubr
          326 callgsubr
          -258 vlineto
          -61 29 -30 77 354 callgsubr
          228 226 callgsubr
          -159 113 159 275 callgsubr
          22 vhcurveto
          56 -367 -55 callsubr
          64 hlineto
          endchar
        </CharString>
        <CharString name="dvK_MA">
          602 860 204 callsubr
          396 callsubr
          -43 hlineto
          -21 -7 5 22 hvcurveto
          118 -92 callsubr
          72 hlineto
          -296 199 rmoveto
          296 -116 -255 hlineto
          -20 -13 202 callsubr
          689 211 rmoveto
          -1062 -83 259 -358 hlineto
          -107 callgsubr
          320 340 callgsubr
          62 -8 hlineto
          -146 vlineto
          -71 33 -29 83 vhcurveto
          87 hlineto
          83 32 29 71 hvcurveto
          154 424 callgsubr
        </CharString>
        <CharString name="dvK_NA">
          570 828 449 rmoveto
          -434 37 callgsubr
          420 callgsubr
          -22 vhcurveto
          -24 -83 callsubr
          151 6 callgsubr
          54 hlineto
          371 264 rmoveto
          -1030 -83 259 -358 hlineto
          -107 callgsubr
          9 callgsubr
          62 -9 hlineto
          -180 vlineto
          -70 33 439 callsubr
          189 76 -367 -14 callgsubr
        </CharString>
        <CharString name="dvK_NNA">
          585 646 189 rmoveto
          245 callgsubr
          359 84 vlineto
          -252 204 callgsubr
          96 -99 vlineto
          576 182 rmoveto
          -1045 -83 259 -358 hlineto
          -107 callgsubr
          9 callgsubr
          67 -189 277 callsubr
        </CharString>
        <CharString name="dvK_PA">
          396 658 53 callgsubr
          -264 204 callgsubr
          99 -99 vlineto
          387 182 rmoveto
          -859 -83 259 -358 hlineto
          -107 callgsubr
          9 callgsubr
          70 -189 187 callgsubr
        </CharString>
        <CharString name="dvK_PHA">
          586 654 10 callgsubr
          -260 204 callgsubr
          95 -99 vlineto
          578 99 rmoveto
          83 -1046 -83 259 -358 vlineto
          -107 callgsubr
          9 callgsubr
          66 -189 hlineto
          -70 -3 callgsubr
          -33 callsubr
          -91 -101 callsubr
        </CharString>
        <CharString name="dvK_P_RA">
          396 654 74 callsubr
          -260 204 callgsubr
          95 -99 vlineto
          387 182 rmoveto
          -855 -83 259 -358 hlineto
          -107 callgsubr
          9 callgsubr
          66 -163 hlineto
          31 callsubr
        </CharString>
        <CharString name="dvK_R">
          62 528 436 callsubr
          -548 -19 callgsubr
          9 callgsubr
          146 82 -134 37 callgsubr
          vlineto
          endchar
        </CharString>
        <CharString name="dvK_RA">
          172 612 436 callsubr
          -632 -19 callgsubr
          26 callsubr
          35 343 callgsubr
          -161 vlineto
          -21 289 callgsubr
          29 62 hvcurveto
          184 164 callgsubr
          -62 337 callsubr
          vlineto
          endchar
        </CharString>
        <CharString name="dvK_SA">
          577 836 352 rmoveto
          -96 hlineto
          -38 callgsubr
          88 hlineto
          -194 -163 83 callgsubr
          375 115 rmoveto
          -1037 -83 259 -358 hlineto
          -107 callgsubr
          9 callgsubr
          62 -276 hlineto
          -25 callgsubr
          278 -270 211 callsubr
        </CharString>
</ttFont>
